#N canvas 1371 80 1551 714 10;
#X declare -lib unauthorized;
#X declare -lib unauthorized;
#X declare -lib unauthorized;
#X declare -lib unauthorized;
#X declare -lib unauthorized;
#X declare -lib unauthorized;
#X obj 122 -30 echantillon poum.wav;
#X obj 127 81 st-EQ7;
#X obj 138 214 output~;
#X obj 321 -23 echantillon poum.wav;
#X obj 326 88 st-EQ7;
#X obj 337 221 output~;
#X obj 910 -21 echantillon poum.wav;
#X obj 912 226 output~;
#X obj 715 -23 echantillon poum.wav;
#X obj 731 221 output~;
#X obj 518 -21 echantillon poum.wav;
#X obj 523 90 st-EQ7;
#X obj 534 223 output~;
#X obj 956 81 vsl 15 60 0 1 0 0 empty empty empty 0 -9 0 10 -262144
-1 -1 800 1;
#X obj 978 80 vsl 15 60 0 1 0 0 empty empty empty 0 -9 0 10 -262144
-1 -1 2900 1;
#X obj 1001 81 vsl 15 60 0 1 0 0 empty empty empty 0 -9 0 10 -262144
-1 -1 1600 1;
#X obj 1023 79 vsl 15 60 0 1 0 0 empty empty empty 0 -9 0 10 -262144
-1 -1 4500 1;
#X obj 1046 83 vsl 15 60 0 1 0 0 empty empty empty 0 -9 0 10 -262144
-1 -1 4000 1;
#N canvas 1 83 650 460 effects------------- 0;
#X obj 139 49 st-pitchshifter;
#X obj 49 -98 st-EQ7;
#X obj 276 150 st-delayfb;
#X obj 276 229 outlet~;
#X obj 448 229 outlet~;
#X obj 49 -133 inlet~;
#X obj 92 -151 inlet~;
#X msg 225 25 0 \$1;
#X obj 226 6 inlet;
#X msg 263 11 1 \$1;
#X obj 263 -14 inlet;
#X obj 304 -15 inlet;
#X msg 304 10 2 \$1;
#X obj 363 76 inlet;
#X obj 404 75 inlet;
#X msg 363 101 0 \$1;
#X msg 405 100 1 \$1;
#X connect 0 0 2 0;
#X connect 0 1 2 1;
#X connect 1 0 0 0;
#X connect 1 1 0 1;
#X connect 2 0 3 0;
#X connect 2 1 4 0;
#X connect 5 0 1 0;
#X connect 6 0 1 1;
#X connect 7 0 0 2;
#X connect 8 0 7 0;
#X connect 9 0 0 2;
#X connect 10 0 9 0;
#X connect 11 0 12 0;
#X connect 12 0 0 2;
#X connect 13 0 15 0;
#X connect 14 0 16 0;
#X connect 15 0 2 2;
#X connect 16 0 2 2;
#X restore 911 171 pd effects-------------;
#X obj 767 89 vsl 15 60 0 1 0 0 empty empty empty 0 -9 0 10 -262144
-1 -1 0 1;
#X obj 790 89 vsl 15 60 0 1 0 0 empty empty empty 0 -9 0 10 -262144
-1 -1 0 1;
#X obj 812 89 vsl 15 60 0 1 0 0 empty empty empty 0 -9 0 10 -262144
-1 -1 0 1;
#X obj 834 87 vsl 15 60 0 1 0 0 empty empty empty 0 -9 0 10 -262144
-1 -1 0 1;
#X obj 857 91 vsl 15 60 0 1 0 0 empty empty empty 0 -9 0 10 -262144
-1 -1 0 1;
#N canvas 1 83 650 460 effects------------- 0;
#X obj 139 49 st-pitchshifter;
#X obj 49 -98 st-EQ7;
#X obj 276 150 st-delayfb;
#X obj 276 229 outlet~;
#X obj 448 229 outlet~;
#X obj 49 -133 inlet~;
#X obj 92 -151 inlet~;
#X msg 225 25 0 \$1;
#X obj 226 6 inlet;
#X msg 263 11 1 \$1;
#X obj 263 -14 inlet;
#X obj 304 -15 inlet;
#X msg 304 10 2 \$1;
#X obj 363 76 inlet;
#X obj 404 75 inlet;
#X msg 363 101 0 \$1;
#X msg 405 100 1 \$1;
#X connect 0 0 2 0;
#X connect 0 1 2 1;
#X connect 1 0 0 0;
#X connect 1 1 0 1;
#X connect 2 0 3 0;
#X connect 2 1 4 0;
#X connect 5 0 1 0;
#X connect 6 0 1 1;
#X connect 7 0 0 2;
#X connect 8 0 7 0;
#X connect 9 0 0 2;
#X connect 10 0 9 0;
#X connect 11 0 12 0;
#X connect 12 0 0 2;
#X connect 13 0 15 0;
#X connect 14 0 16 0;
#X connect 15 0 2 2;
#X connect 16 0 2 2;
#X restore 722 179 pd effects-------------;
#X obj 1100 -21 echantillon poum.wav;
#X obj 1102 226 output~;
#X obj 1146 81 vsl 15 60 0 1 0 0 empty empty empty 0 -9 0 10 -262144
-1 -1 0 1;
#X obj 1168 80 vsl 15 60 0 1 0 0 empty empty empty 0 -9 0 10 -262144
-1 -1 0 1;
#X obj 1191 81 vsl 15 60 0 1 0 0 empty empty empty 0 -9 0 10 -262144
-1 -1 0 1;
#X obj 1213 79 vsl 15 60 0 1 0 0 empty empty empty 0 -9 0 10 -262144
-1 -1 0 1;
#X obj 1236 83 vsl 15 60 0 1 0 0 empty empty empty 0 -9 0 10 -262144
-1 -1 0 1;
#N canvas 1 83 650 460 effects------------- 0;
#X obj 139 49 st-pitchshifter;
#X obj 49 -98 st-EQ7;
#X obj 276 150 st-delayfb;
#X obj 276 229 outlet~;
#X obj 448 229 outlet~;
#X obj 49 -133 inlet~;
#X obj 92 -151 inlet~;
#X msg 225 25 0 \$1;
#X obj 226 6 inlet;
#X msg 263 11 1 \$1;
#X obj 263 -14 inlet;
#X obj 304 -15 inlet;
#X msg 304 10 2 \$1;
#X obj 363 76 inlet;
#X obj 404 75 inlet;
#X msg 363 101 0 \$1;
#X msg 405 100 1 \$1;
#X connect 0 0 2 0;
#X connect 0 1 2 1;
#X connect 1 0 0 0;
#X connect 1 1 0 1;
#X connect 2 0 3 0;
#X connect 2 1 4 0;
#X connect 5 0 1 0;
#X connect 6 0 1 1;
#X connect 7 0 0 2;
#X connect 8 0 7 0;
#X connect 9 0 0 2;
#X connect 10 0 9 0;
#X connect 11 0 12 0;
#X connect 12 0 0 2;
#X connect 13 0 15 0;
#X connect 14 0 16 0;
#X connect 15 0 2 2;
#X connect 16 0 2 2;
#X restore 1101 171 pd effects-------------;
#X obj 138 328 Brane-e;
#X obj 137 290 adc~;
#X obj 138 636 output~;
#X obj 708 328 Brane-e;
#X obj 707 290 adc~;
#X obj 708 636 output~;
#X connect 0 0 1 0;
#X connect 0 1 1 1;
#X connect 1 0 2 0;
#X connect 1 1 2 1;
#X connect 3 0 4 0;
#X connect 3 1 4 1;
#X connect 4 0 5 0;
#X connect 4 1 5 1;
#X connect 6 0 18 0;
#X connect 6 1 18 1;
#X connect 8 0 24 0;
#X connect 8 1 24 1;
#X connect 10 0 11 0;
#X connect 10 1 11 1;
#X connect 11 0 12 0;
#X connect 11 1 12 1;
#X connect 13 0 18 2;
#X connect 14 0 18 3;
#X connect 15 0 18 4;
#X connect 16 0 18 5;
#X connect 17 0 18 6;
#X connect 18 0 7 0;
#X connect 18 1 7 1;
#X connect 19 0 24 2;
#X connect 20 0 24 3;
#X connect 21 0 24 4;
#X connect 22 0 24 5;
#X connect 23 0 24 6;
#X connect 24 0 9 0;
#X connect 24 1 9 1;
#X connect 25 0 32 0;
#X connect 25 1 32 1;
#X connect 27 0 32 2;
#X connect 28 0 32 3;
#X connect 29 0 32 4;
#X connect 30 0 32 5;
#X connect 31 0 32 6;
#X connect 32 0 26 0;
#X connect 32 1 26 1;
#X connect 33 0 35 0;
#X connect 33 0 35 1;
#X connect 34 0 33 0;
#X connect 34 1 33 0;
#X connect 36 0 38 0;
#X connect 36 0 38 1;
#X connect 37 0 36 0;
#X connect 37 1 36 0;
