#N canvas 1168 324 336 142 10;
#X declare -lib unauthorized;
#X declare -lib unauthorized;
#X declare -lib unauthorized;
#X declare -lib unauthorized;
#X declare -lib unauthorized;
#N canvas 875 55 781 675 esqueleto 0;
#X obj 544 137 sendOSC;
#X msg 562 102 disconnect;
#X msg 544 76 connect 127.0.0.1 9999;
#X floatatom 544 164 7 0 0 0 - - -;
#X obj 650 139 s node;
#X obj 649 174 print node;
#X obj 127 -1 r node;
#X floatatom 127 1613 5 0 0 0 - - -;
#X obj 127 1638 s play0;
#X obj 156 1591 s X0;
#X floatatom 156 1568 5 0 0 0 - - -;
#X floatatom 186 1537 5 0 0 0 - - -;
#X obj 186 1560 s Y0;
#X floatatom 216 1589 5 0 0 0 - - -;
#X floatatom 245 1541 5 0 0 0 - - -;
#X obj 216 1612 s Z0;
#X obj 245 1564 s sho0L;
#X floatatom 276 1601 5 0 0 0 - - -;
#X obj 276 1624 s sho0R;
#X floatatom 305 1554 5 0 0 0 - - -;
#X floatatom 335 1613 5 0 0 0 - - -;
#X obj 335 1639 s han0R;
#X obj 305 1580 s han0L;
#X floatatom 364 1563 5 0 0 0 - - -;
#X obj 364 1589 s velocity0;
#X obj 127 1456 OSCroute /playGroup /hipX /hipY /hipZ /shoL /shoL /hanL
/hanR /velO /in /out;
#X floatatom 394 1540 5 0 0 0 - - -;
#X floatatom 424 1520 5 0 0 0 - - -;
#X floatatom 160 1375 5 0 0 0 - - -;
#X floatatom 189 1330 5 0 0 0 - - -;
#X floatatom 219 1299 5 0 0 0 - - -;
#X floatatom 249 1351 5 0 0 0 - - -;
#X floatatom 278 1303 5 0 0 0 - - -;
#X floatatom 309 1363 5 0 0 0 - - -;
#X floatatom 338 1316 5 0 0 0 - - -;
#X floatatom 368 1375 5 0 0 0 - - -;
#X floatatom 397 1325 5 0 0 0 - - -;
#X obj 160 1216 OSCroute /playGroup /hipX /hipY /hipZ /shoL /shoL /hanL
/hanR /velO /in /out;
#X floatatom 427 1300 5 0 0 0 - - -;
#X floatatom 457 1260 5 0 0 0 - - -;
#X floatatom 193 1129 5 0 0 0 - - -;
#X floatatom 222 1084 5 0 0 0 - - -;
#X floatatom 252 1053 5 0 0 0 - - -;
#X floatatom 282 1105 5 0 0 0 - - -;
#X floatatom 311 1057 5 0 0 0 - - -;
#X floatatom 342 1117 5 0 0 0 - - -;
#X floatatom 371 1070 5 0 0 0 - - -;
#X floatatom 401 1129 5 0 0 0 - - -;
#X floatatom 430 1079 5 0 0 0 - - -;
#X obj 193 976 OSCroute /playGroup /hipX /hipY /hipZ /shoL /shoL /hanL
/hanR /velO /in /out;
#X floatatom 460 1040 5 0 0 0 - - -;
#X floatatom 490 1020 5 0 0 0 - - -;
#X floatatom 228 898 5 0 0 0 - - -;
#X floatatom 257 853 5 0 0 0 - - -;
#X floatatom 287 822 5 0 0 0 - - -;
#X floatatom 317 874 5 0 0 0 - - -;
#X floatatom 346 826 5 0 0 0 - - -;
#X floatatom 377 886 5 0 0 0 - - -;
#X floatatom 406 839 5 0 0 0 - - -;
#X floatatom 436 898 5 0 0 0 - - -;
#X floatatom 465 848 5 0 0 0 - - -;
#X obj 228 746 OSCroute /playGroup /hipX /hipY /hipZ /shoL /shoL /hanL
/hanR /velO /in /out;
#X floatatom 495 810 5 0 0 0 - - -;
#X floatatom 525 790 5 0 0 0 - - -;
#X floatatom 262 647 5 0 0 0 - - -;
#X floatatom 291 602 5 0 0 0 - - -;
#X floatatom 321 571 5 0 0 0 - - -;
#X floatatom 351 623 5 0 0 0 - - -;
#X floatatom 380 575 5 0 0 0 - - -;
#X floatatom 411 635 5 0 0 0 - - -;
#X floatatom 440 588 5 0 0 0 - - -;
#X floatatom 470 647 5 0 0 0 - - -;
#X obj 470 673 s han0R;
#X floatatom 499 597 5 0 0 0 - - -;
#X obj 262 496 OSCroute /playGroup /hipX /hipY /hipZ /shoL /shoL /hanL
/hanR /velO /in /out;
#X floatatom 529 560 5 0 0 0 - - -;
#X floatatom 559 540 5 0 0 0 - - -;
#X floatatom 296 386 5 0 0 0 - - -;
#X floatatom 325 341 5 0 0 0 - - -;
#X floatatom 355 310 5 0 0 0 - - -;
#X floatatom 385 362 5 0 0 0 - - -;
#X floatatom 414 314 5 0 0 0 - - -;
#X floatatom 445 374 5 0 0 0 - - -;
#X floatatom 474 327 5 0 0 0 - - -;
#X floatatom 504 386 5 0 0 0 - - -;
#X floatatom 533 336 5 0 0 0 - - -;
#X obj 296 236 OSCroute /playGroup /hipX /hipY /hipZ /shoL /shoL /hanL
/hanR /velO /in /out;
#X floatatom 563 300 5 0 0 0 - - -;
#X floatatom 593 280 5 0 0 0 - - -;
#X obj 296 411 s play5;
#X obj 325 364 s X5;
#X obj 355 333 s Y5;
#X obj 385 385 s Z5;
#X obj 414 337 s sho5L;
#X obj 445 397 s sho5R;
#X obj 474 353 s han5L;
#X obj 504 412 s han5R;
#X obj 533 362 s velocity5;
#X obj 262 672 s play4;
#X obj 291 625 s X4;
#X obj 321 594 s Y4;
#X obj 380 598 s sho4L;
#X obj 351 646 s Z4;
#X obj 411 658 s sho4R;
#X obj 440 614 s han4L;
#X obj 499 623 s velocity4;
#X obj 228 923 s play3;
#X obj 257 876 s X3;
#X obj 287 845 s Y3;
#X obj 317 897 s Z3;
#X obj 346 849 s sho3L;
#X obj 377 909 s sho3R;
#X obj 406 865 s han3L;
#X obj 436 924 s han3R;
#X obj 465 874 s velocity3;
#X obj 193 1154 s play2;
#X obj 222 1107 s X2;
#X obj 252 1076 s Y2;
#X obj 282 1128 s Z2;
#X obj 311 1080 s sho2L;
#X obj 342 1140 s sho2R;
#X obj 371 1096 s han2L;
#X obj 401 1155 s han2R;
#X obj 430 1105 s velocity2;
#X obj 160 1400 s play1;
#X obj 189 1353 s X1;
#X obj 219 1322 s Y1;
#X obj 249 1374 s Z1;
#X obj 278 1326 s sho1L;
#X obj 309 1386 s sho1R;
#X obj 338 1342 s han1L;
#X obj 368 1401 s han1R;
#X obj 397 1351 s velocity1;
#X obj 544 39 loadbang;
#X obj 651 589 s out4;
#X obj 591 599 s in4;
#X obj 524 1079 s in2;
#X obj 584 1069 s out2;
#X obj 472 1339 s in1;
#X obj 532 1309 s out1;
#X obj 460 1579 s in0;
#X obj 520 1569 s out0;
#X obj 624 339 s in5;
#X obj 684 329 s out5;
#X obj 127 29 OSCroute /u0 /u1 /u2 /u3 /u4 /u5 /groups;
#N canvas 670 93 696 675 groups 0;
#X floatatom 227 389 5 0 0 0 - - -;
#X obj 227 419 s mixerPAN;
#X floatatom 155 541 5 0 0 0 - - -;
#X obj 155 614 s mixerA;
#X floatatom 191 441 5 0 0 0 - - -;
#X obj 191 513 s mixerB;
#X obj 191 492 bng 15 250 50 0 empty empty empty 17 7 0 10 -262144
-1 -1;
#X obj 155 590 bng 15 250 50 0 empty empty empty 17 7 0 10 -262144
-1 -1;
#X floatatom 264 169 5 0 0 0 - - -;
#X obj 264 243 pack f f f;
#X floatatom 300 170 5 0 0 0 - - -;
#X floatatom 336 169 5 0 0 0 - - -;
#X floatatom 373 169 5 0 0 0 - - -;
#X obj 155 119 OSCroute /gA /gB /mixer /play0A /play1A /play2A /play0B
/play1B /play2B;
#X floatatom 409 169 5 0 0 0 - - -;
#X floatatom 445 169 5 0 0 0 - - -;
#X obj 373 242 pack f f f;
#X obj 264 291 s playerA;
#X obj 373 293 s playerB;
#X obj 155 65 inlet;
#X obj 155 565 sel 1;
#X obj 191 467 sel 1;
#X connect 0 0 1 0;
#X connect 2 0 20 0;
#X connect 4 0 21 0;
#X connect 6 0 5 0;
#X connect 7 0 3 0;
#X connect 8 0 9 0;
#X connect 9 0 17 0;
#X connect 10 0 9 1;
#X connect 11 0 9 2;
#X connect 12 0 16 0;
#X connect 13 0 2 0;
#X connect 13 1 4 0;
#X connect 13 2 0 0;
#X connect 13 3 8 0;
#X connect 13 4 10 0;
#X connect 13 5 11 0;
#X connect 13 6 12 0;
#X connect 13 7 14 0;
#X connect 13 8 15 0;
#X connect 14 0 16 1;
#X connect 15 0 16 2;
#X connect 16 0 18 0;
#X connect 19 0 13 0;
#X connect 20 0 7 0;
#X connect 21 0 6 0;
#X restore 330 67 pd groups;
#X obj 538 849 s in3;
#X obj 598 839 s out3;
#N canvas 469 93 450 675 RGB3 0;
#X floatatom 171 346 5 0 0 0 - - -;
#X floatatom 231 96 5 0 0 0 - - -;
#X obj 171 395 s green3;
#X obj 231 179 s blue3;
#X obj 51 37 r sho3L;
#X obj 111 37 r sho3R;
#X obj 171 37 r han3L;
#X obj 231 37 r han3R;
#X floatatom 51 566 5 0 0 0 - - -;
#X floatatom 111 459 5 0 0 0 - - -;
#X obj 51 599 / 1000;
#X floatatom 51 632 5 0 0 0 - - -;
#X obj 51 543 changemorethan 100000;
#X floatatom 51 693 5 0 0 0 - - -;
#X obj 51 656 autoscale -1 10;
#X obj 111 428 changemorethan 10000;
#X obj 111 508 s red3;
#X obj 51 737 s gain3;
#X obj 171 325 changemorethan 100000;
#X obj 171 368 autoscale -10 10.5;
#X obj 231 75 changemorethan 100000;
#X obj 231 140 autoscale -1 10.5;
#X obj 111 481 autoscale -5 5.5;
#X obj 246 644 sel 1;
#X floatatom 245 602 5 0 0 0 - - -;
#X msg 246 675 1;
#X msg 315 646 0;
#X obj 374 618 sel 0;
#X msg 374 646 1;
#X obj 245 576 < 3;
#X obj 315 618 change 1;
#X obj 245 542 r velocity3;
#X obj 246 724 s play3out;
#X obj 374 722 s key3;
#X connect 0 0 19 0;
#X connect 1 0 21 0;
#X connect 4 0 12 0;
#X connect 5 0 15 0;
#X connect 6 0 18 0;
#X connect 7 0 20 0;
#X connect 8 0 10 0;
#X connect 9 0 22 0;
#X connect 10 0 11 0;
#X connect 11 0 14 0;
#X connect 12 0 8 0;
#X connect 13 0 17 0;
#X connect 14 0 13 0;
#X connect 15 0 9 0;
#X connect 18 0 0 0;
#X connect 19 0 2 0;
#X connect 20 0 1 0;
#X connect 21 0 3 0;
#X connect 22 0 16 0;
#X connect 23 0 25 0;
#X connect 24 0 23 0;
#X connect 24 0 27 0;
#X connect 24 0 30 0;
#X connect 25 0 32 0;
#X connect 26 0 33 0;
#X connect 27 0 28 0;
#X connect 28 0 33 0;
#X connect 29 0 24 0;
#X connect 30 0 26 0;
#X connect 31 0 29 0;
#X restore 27 861 pd RGB3;
#N canvas 485 95 471 673 RGB0 0;
#X floatatom 171 346 5 0 0 0 - - -;
#X floatatom 231 96 5 0 0 0 - - -;
#X floatatom 51 566 5 0 0 0 - - -;
#X floatatom 111 459 5 0 0 0 - - -;
#X obj 51 599 / 1000;
#X floatatom 51 632 5 0 0 0 - - -;
#X obj 51 543 changemorethan 100000;
#X floatatom 51 693 5 0 0 0 - - -;
#X obj 51 656 autoscale -1 10;
#X obj 111 428 changemorethan 10000;
#X obj 171 325 changemorethan 100000;
#X obj 171 368 autoscale -10 10.5;
#X obj 231 75 changemorethan 100000;
#X obj 231 140 autoscale -1 10.5;
#X obj 51 37 r sho0L;
#X obj 112 38 r sho0R;
#X obj 171 37 r han0L;
#X obj 231 37 r han0R;
#X obj 231 179 s blue0;
#X obj 171 395 s green0;
#X obj 111 508 s red0;
#X obj 51 737 s gain0;
#X obj 111 481 autoscale -5 5.5;
#X obj 273 697 sel 1;
#X floatatom 272 655 5 0 0 0 - - -;
#X msg 273 728 1;
#X msg 342 699 0;
#X obj 401 671 sel 0;
#X msg 401 699 1;
#X obj 272 595 r velocity0;
#X obj 273 777 s play0out;
#X obj 401 775 s key0;
#X obj 272 629 < 3;
#X obj 342 671 change 1;
#X connect 0 0 11 0;
#X connect 1 0 13 0;
#X connect 2 0 4 0;
#X connect 3 0 22 0;
#X connect 4 0 5 0;
#X connect 5 0 8 0;
#X connect 6 0 2 0;
#X connect 7 0 21 0;
#X connect 8 0 7 0;
#X connect 9 0 3 0;
#X connect 10 0 0 0;
#X connect 11 0 19 0;
#X connect 12 0 1 0;
#X connect 13 0 18 0;
#X connect 14 0 6 0;
#X connect 15 0 9 0;
#X connect 16 0 10 0;
#X connect 17 0 12 0;
#X connect 22 0 20 0;
#X connect 23 0 25 0;
#X connect 24 0 23 0;
#X connect 24 0 27 0;
#X connect 24 0 33 0;
#X connect 25 0 30 0;
#X connect 26 0 31 0;
#X connect 27 0 28 0;
#X connect 28 0 31 0;
#X connect 29 0 32 0;
#X connect 32 0 24 0;
#X connect 33 0 26 0;
#X restore 27 771 pd RGB0;
#N canvas 469 93 450 579 RGB1 0;
#X floatatom 171 346 5 0 0 0 - - -;
#X floatatom 231 96 5 0 0 0 - - -;
#X floatatom 51 566 5 0 0 0 - - -;
#X floatatom 111 459 5 0 0 0 - - -;
#X obj 51 599 / 1000;
#X floatatom 51 632 5 0 0 0 - - -;
#X obj 51 543 changemorethan 100000;
#X floatatom 51 693 5 0 0 0 - - -;
#X obj 51 656 autoscale -1 10;
#X obj 111 428 changemorethan 10000;
#X obj 171 325 changemorethan 100000;
#X obj 171 368 autoscale -10 10.5;
#X obj 231 75 changemorethan 100000;
#X obj 231 140 autoscale -1 10.5;
#X obj 51 37 r sho1L;
#X obj 111 37 r sho1R;
#X obj 171 37 r han1L;
#X obj 231 37 r han1R;
#X obj 231 179 s blue1;
#X obj 171 395 s green1;
#X obj 111 508 s red1;
#X obj 51 737 s gain1;
#X obj 111 481 autoscale -5 5.5;
#X obj 283 707 sel 1;
#X floatatom 282 665 5 0 0 0 - - -;
#X msg 283 738 1;
#X msg 352 709 0;
#X obj 411 681 sel 0;
#X msg 411 709 1;
#X obj 282 639 < 3;
#X obj 352 681 change 1;
#X obj 282 605 r velocity1;
#X obj 283 787 s play1out;
#X obj 411 785 s key1;
#X connect 0 0 11 0;
#X connect 1 0 13 0;
#X connect 2 0 4 0;
#X connect 3 0 22 0;
#X connect 4 0 5 0;
#X connect 5 0 8 0;
#X connect 6 0 2 0;
#X connect 7 0 21 0;
#X connect 8 0 7 0;
#X connect 9 0 3 0;
#X connect 10 0 0 0;
#X connect 11 0 19 0;
#X connect 12 0 1 0;
#X connect 13 0 18 0;
#X connect 14 0 6 0;
#X connect 15 0 9 0;
#X connect 16 0 10 0;
#X connect 17 0 12 0;
#X connect 22 0 20 0;
#X connect 23 0 25 0;
#X connect 24 0 23 0;
#X connect 24 0 27 0;
#X connect 24 0 30 0;
#X connect 25 0 32 0;
#X connect 26 0 33 0;
#X connect 27 0 28 0;
#X connect 28 0 33 0;
#X connect 29 0 24 0;
#X connect 30 0 26 0;
#X connect 31 0 29 0;
#X restore 27 801 pd RGB1;
#N canvas 469 93 484 675 RGB2 0;
#X floatatom 171 346 5 0 0 0 - - -;
#X floatatom 231 96 5 0 0 0 - - -;
#X floatatom 51 566 5 0 0 0 - - -;
#X floatatom 111 459 5 0 0 0 - - -;
#X obj 51 599 / 1000;
#X floatatom 51 632 5 0 0 0 - - -;
#X obj 51 543 changemorethan 100000;
#X floatatom 51 693 5 0 0 0 - - -;
#X obj 51 656 autoscale -1 10;
#X obj 111 428 changemorethan 10000;
#X obj 171 325 changemorethan 100000;
#X obj 171 368 autoscale -10 10.5;
#X obj 231 75 changemorethan 100000;
#X obj 231 140 autoscale -1 10.5;
#X obj 51 37 r sho2L;
#X obj 111 37 r sho2R;
#X obj 171 37 r han2L;
#X obj 231 37 r han2R;
#X obj 231 179 s blue2;
#X obj 171 395 s green2;
#X obj 111 508 s red2;
#X obj 51 738 s gain2;
#X obj 111 481 autoscale -5 5.5;
#X obj 284 642 sel 1;
#X floatatom 283 600 5 0 0 0 - - -;
#X msg 284 673 1;
#X msg 353 644 0;
#X obj 412 616 sel 0;
#X msg 412 644 1;
#X obj 283 574 < 3;
#X obj 353 616 change 1;
#X obj 283 540 r velocity2;
#X obj 284 722 s play2out;
#X obj 412 720 s key2;
#X connect 0 0 11 0;
#X connect 1 0 13 0;
#X connect 2 0 4 0;
#X connect 3 0 22 0;
#X connect 4 0 5 0;
#X connect 5 0 8 0;
#X connect 6 0 2 0;
#X connect 7 0 21 0;
#X connect 8 0 7 0;
#X connect 9 0 3 0;
#X connect 10 0 0 0;
#X connect 11 0 19 0;
#X connect 12 0 1 0;
#X connect 13 0 18 0;
#X connect 14 0 6 0;
#X connect 15 0 9 0;
#X connect 16 0 10 0;
#X connect 17 0 12 0;
#X connect 22 0 20 0;
#X connect 23 0 25 0;
#X connect 24 0 23 0;
#X connect 24 0 27 0;
#X connect 24 0 30 0;
#X connect 25 0 32 0;
#X connect 26 0 33 0;
#X connect 27 0 28 0;
#X connect 28 0 33 0;
#X connect 29 0 24 0;
#X connect 30 0 26 0;
#X connect 31 0 29 0;
#X restore 27 831 pd RGB2;
#N canvas 469 93 450 637 RGB4 0;
#X floatatom 171 346 5 0 0 0 - - -;
#X floatatom 231 96 5 0 0 0 - - -;
#X floatatom 51 566 5 0 0 0 - - -;
#X floatatom 111 459 5 0 0 0 - - -;
#X obj 51 599 / 1000;
#X floatatom 51 632 5 0 0 0 - - -;
#X obj 51 543 changemorethan 100000;
#X floatatom 51 693 5 0 0 0 - - -;
#X obj 51 656 autoscale -1 10;
#X obj 111 428 changemorethan 10000;
#X obj 111 508 s red3;
#X obj 171 325 changemorethan 100000;
#X obj 171 368 autoscale -10 10.5;
#X obj 231 75 changemorethan 100000;
#X obj 231 140 autoscale -1 10.5;
#X obj 51 37 r sho4L;
#X obj 111 37 r sho4R;
#X obj 171 37 r han4L;
#X obj 231 37 r han4R;
#X obj 231 179 s blue4;
#X obj 171 395 s green4;
#X obj 51 737 s gain4;
#X obj 111 481 autoscale -5 5.5;
#X obj 260 637 sel 1;
#X floatatom 259 595 5 0 0 0 - - -;
#X msg 260 668 1;
#X msg 329 639 0;
#X obj 388 611 sel 0;
#X msg 388 639 1;
#X obj 259 569 < 3;
#X obj 329 611 change 1;
#X obj 259 535 r velocity4;
#X obj 260 717 s play4out;
#X obj 388 715 s key4;
#X connect 0 0 12 0;
#X connect 1 0 14 0;
#X connect 2 0 4 0;
#X connect 3 0 22 0;
#X connect 4 0 5 0;
#X connect 5 0 8 0;
#X connect 6 0 2 0;
#X connect 7 0 21 0;
#X connect 8 0 7 0;
#X connect 9 0 3 0;
#X connect 11 0 0 0;
#X connect 12 0 20 0;
#X connect 13 0 1 0;
#X connect 14 0 19 0;
#X connect 15 0 6 0;
#X connect 16 0 9 0;
#X connect 17 0 11 0;
#X connect 18 0 13 0;
#X connect 22 0 10 0;
#X connect 23 0 25 0;
#X connect 24 0 23 0;
#X connect 24 0 27 0;
#X connect 24 0 30 0;
#X connect 25 0 32 0;
#X connect 26 0 33 0;
#X connect 27 0 28 0;
#X connect 28 0 33 0;
#X connect 29 0 24 0;
#X connect 30 0 26 0;
#X connect 31 0 29 0;
#X restore 27 891 pd RGB4;
#N canvas 466 102 450 666 RGB5 0;
#X floatatom 171 346 5 0 0 0 - - -;
#X floatatom 231 96 5 0 0 0 - - -;
#X floatatom 51 566 5 0 0 0 - - -;
#X floatatom 111 459 5 0 0 0 - - -;
#X obj 51 599 / 1000;
#X floatatom 51 632 5 0 0 0 - - -;
#X obj 51 543 changemorethan 100000;
#X floatatom 51 693 5 0 0 0 - - -;
#X obj 51 656 autoscale -1 10;
#X obj 111 428 changemorethan 10000;
#X obj 171 325 changemorethan 100000;
#X obj 171 368 autoscale -10 10.5;
#X obj 231 75 changemorethan 100000;
#X obj 231 140 autoscale -1 10.5;
#X obj 51 37 r sho5L;
#X obj 111 37 r sho5R;
#X obj 171 37 r han5L;
#X obj 231 37 r han5R;
#X obj 231 179 s blue5;
#X obj 171 395 s green5;
#X obj 111 508 s red5;
#X obj 51 737 s gain5;
#X obj 111 481 autoscale -5 5.5;
#X obj 246 638 sel 1;
#X floatatom 245 596 5 0 0 0 - - -;
#X msg 246 669 1;
#X msg 315 640 0;
#X obj 374 612 sel 0;
#X msg 374 640 1;
#X obj 245 570 < 3;
#X obj 315 612 change 1;
#X obj 245 536 r velocity5;
#X obj 246 718 s play5out;
#X obj 374 716 s key5;
#X connect 0 0 11 0;
#X connect 1 0 13 0;
#X connect 2 0 4 0;
#X connect 3 0 22 0;
#X connect 4 0 5 0;
#X connect 5 0 8 0;
#X connect 6 0 2 0;
#X connect 7 0 21 0;
#X connect 8 0 7 0;
#X connect 9 0 3 0;
#X connect 10 0 0 0;
#X connect 11 0 19 0;
#X connect 12 0 1 0;
#X connect 13 0 18 0;
#X connect 14 0 6 0;
#X connect 15 0 9 0;
#X connect 16 0 10 0;
#X connect 17 0 12 0;
#X connect 22 0 20 0;
#X connect 23 0 25 0;
#X connect 24 0 23 0;
#X connect 24 0 27 0;
#X connect 24 0 30 0;
#X connect 25 0 32 0;
#X connect 26 0 33 0;
#X connect 27 0 28 0;
#X connect 28 0 33 0;
#X connect 29 0 24 0;
#X connect 30 0 26 0;
#X connect 31 0 29 0;
#X restore 27 921 pd RGB5;
#N canvas 0 106 1351 502 velocity 0;
#X obj 31 -95 sel 1;
#X msg 31 -64 200 1000;
#X obj 31 -36 line 200;
#X floatatom 31 15 5 0 0 0 - - -;
#X msg 115 -64 50 1000;
#X obj 115 -92 sel 1;
#X obj 175 -92 sel 1;
#X msg 175 -64 20 1000;
#X obj 31 -170 r velocity0;
#X obj 271 -95 sel 1;
#X msg 271 -64 200 1000;
#X obj 271 -36 line 200;
#X floatatom 271 15 5 0 0 0 - - -;
#X msg 355 -64 50 1000;
#X obj 355 -92 sel 1;
#X obj 415 -92 sel 1;
#X msg 415 -64 20 1000;
#X obj 271 -170 r velocity1;
#X obj 501 -95 sel 1;
#X msg 501 -64 200 1000;
#X obj 501 -36 line 200;
#X floatatom 501 15 5 0 0 0 - - -;
#X msg 585 -64 50 1000;
#X obj 585 -92 sel 1;
#X obj 645 -92 sel 1;
#X msg 645 -64 20 1000;
#X obj 501 -170 r velocity2;
#X obj 721 -95 sel 1;
#X msg 721 -64 200 1000;
#X obj 721 -36 line 200;
#X floatatom 721 15 5 0 0 0 - - -;
#X msg 805 -64 50 1000;
#X obj 805 -92 sel 1;
#X obj 865 -92 sel 1;
#X msg 865 -64 20 1000;
#X obj 721 -170 r velocity3;
#X obj 931 -98 sel 1;
#X msg 931 -67 200 1000;
#X obj 931 -39 line 200;
#X floatatom 931 12 5 0 0 0 - - -;
#X msg 1015 -67 50 1000;
#X obj 1015 -95 sel 1;
#X obj 1075 -95 sel 1;
#X msg 1075 -67 20 1000;
#X obj 1151 -98 sel 1;
#X msg 1151 -67 200 1000;
#X obj 1151 -39 line 200;
#X floatatom 1151 12 5 0 0 0 - - -;
#X msg 1235 -67 50 1000;
#X obj 1235 -95 sel 1;
#X obj 1295 -95 sel 1;
#X msg 1295 -67 20 1000;
#X obj 931 -173 r velocity4;
#X obj 1151 -173 r velocity5;
#X obj 31 49 s frame0;
#X obj 271 49 s frame1;
#X obj 501 49 s frame2;
#X obj 721 49 s frame3;
#X obj 931 49 s frame4;
#X obj 1150 51 s frame5;
#X obj 31 -130 < 3;
#X obj 271 -130 < 3;
#X obj 501 -130 < 3;
#X obj 721 -130 < 3;
#X obj 931 -133 < 3;
#X obj 1151 -132 < 3;
#X obj 175 -130 > 7;
#X obj 805 -130 >= 3;
#X obj 115 -130 >= 3;
#X obj 355 -130 >= 3;
#X obj 585 -130 >= 3;
#X obj 1235 -133 >= 3;
#X obj 415 -130 >= 7;
#X obj 645 -130 >= 7;
#X obj 865 -130 >= 7;
#X obj 1015 -133 >= 3;
#X obj 1075 -133 >= 7;
#X obj 1295 -133 >= 7;
#X connect 0 0 1 0;
#X connect 1 0 2 0;
#X connect 2 0 3 0;
#X connect 3 0 54 0;
#X connect 4 0 2 0;
#X connect 5 0 4 0;
#X connect 6 0 7 0;
#X connect 7 0 2 0;
#X connect 8 0 60 0;
#X connect 8 0 66 0;
#X connect 8 0 68 0;
#X connect 9 0 10 0;
#X connect 10 0 11 0;
#X connect 11 0 12 0;
#X connect 12 0 55 0;
#X connect 13 0 11 0;
#X connect 14 0 13 0;
#X connect 15 0 16 0;
#X connect 16 0 11 0;
#X connect 17 0 61 0;
#X connect 17 0 69 0;
#X connect 17 0 72 0;
#X connect 18 0 19 0;
#X connect 19 0 20 0;
#X connect 20 0 21 0;
#X connect 21 0 56 0;
#X connect 22 0 20 0;
#X connect 23 0 22 0;
#X connect 24 0 25 0;
#X connect 25 0 20 0;
#X connect 26 0 62 0;
#X connect 26 0 70 0;
#X connect 26 0 73 0;
#X connect 27 0 28 0;
#X connect 28 0 29 0;
#X connect 29 0 30 0;
#X connect 30 0 57 0;
#X connect 31 0 29 0;
#X connect 32 0 31 0;
#X connect 33 0 34 0;
#X connect 34 0 29 0;
#X connect 35 0 63 0;
#X connect 35 0 67 0;
#X connect 35 0 74 0;
#X connect 36 0 37 0;
#X connect 37 0 38 0;
#X connect 38 0 39 0;
#X connect 39 0 58 0;
#X connect 40 0 38 0;
#X connect 41 0 40 0;
#X connect 42 0 43 0;
#X connect 43 0 38 0;
#X connect 44 0 45 0;
#X connect 45 0 46 0;
#X connect 46 0 47 0;
#X connect 47 0 59 0;
#X connect 48 0 46 0;
#X connect 49 0 48 0;
#X connect 50 0 51 0;
#X connect 51 0 46 0;
#X connect 52 0 64 0;
#X connect 52 0 75 0;
#X connect 52 0 76 0;
#X connect 53 0 65 0;
#X connect 53 0 71 0;
#X connect 53 0 77 0;
#X connect 60 0 0 0;
#X connect 61 0 9 0;
#X connect 62 0 18 0;
#X connect 63 0 27 0;
#X connect 64 0 36 0;
#X connect 65 0 44 0;
#X connect 66 0 6 0;
#X connect 67 0 32 0;
#X connect 68 0 5 0;
#X connect 69 0 14 0;
#X connect 70 0 23 0;
#X connect 71 0 49 0;
#X connect 72 0 15 0;
#X connect 73 0 24 0;
#X connect 74 0 33 0;
#X connect 75 0 41 0;
#X connect 76 0 42 0;
#X connect 77 0 50 0;
#X restore 22 962 pd velocity;
#X obj 650 114 dumpOSC 2222;
#X obj 460 1556 change 1;
#X obj 472 1316 change 1;
#X obj 524 1056 change 1;
#X obj 538 826 change 1;
#X obj 591 576 change 1;
#X obj 624 316 change 1;
#X obj 584 1036 sel 1;
#X obj 520 1536 sel 1;
#X obj 532 1276 sel 1;
#X obj 597 806 sel 1;
#X obj 651 556 sel 1;
#X obj 684 296 sel 1;
#X connect 0 0 3 0;
#X connect 1 0 0 0;
#X connect 2 0 0 0;
#X connect 6 0 144 0;
#X connect 7 0 8 0;
#X connect 10 0 9 0;
#X connect 11 0 12 0;
#X connect 13 0 15 0;
#X connect 14 0 16 0;
#X connect 17 0 18 0;
#X connect 19 0 22 0;
#X connect 20 0 21 0;
#X connect 23 0 24 0;
#X connect 25 0 7 0;
#X connect 25 1 10 0;
#X connect 25 2 11 0;
#X connect 25 3 13 0;
#X connect 25 4 14 0;
#X connect 25 5 17 0;
#X connect 25 6 19 0;
#X connect 25 7 20 0;
#X connect 25 8 23 0;
#X connect 25 9 26 0;
#X connect 25 10 27 0;
#X connect 26 0 156 0;
#X connect 27 0 163 0;
#X connect 28 0 124 0;
#X connect 29 0 125 0;
#X connect 30 0 126 0;
#X connect 31 0 127 0;
#X connect 32 0 128 0;
#X connect 33 0 129 0;
#X connect 34 0 130 0;
#X connect 35 0 131 0;
#X connect 36 0 132 0;
#X connect 37 0 28 0;
#X connect 37 1 29 0;
#X connect 37 2 30 0;
#X connect 37 3 31 0;
#X connect 37 4 32 0;
#X connect 37 5 33 0;
#X connect 37 6 34 0;
#X connect 37 7 35 0;
#X connect 37 8 36 0;
#X connect 37 9 38 0;
#X connect 37 10 39 0;
#X connect 38 0 157 0;
#X connect 39 0 164 0;
#X connect 40 0 115 0;
#X connect 41 0 116 0;
#X connect 42 0 117 0;
#X connect 43 0 118 0;
#X connect 44 0 119 0;
#X connect 45 0 120 0;
#X connect 46 0 121 0;
#X connect 47 0 122 0;
#X connect 48 0 123 0;
#X connect 49 0 40 0;
#X connect 49 1 41 0;
#X connect 49 2 42 0;
#X connect 49 3 43 0;
#X connect 49 4 44 0;
#X connect 49 5 45 0;
#X connect 49 6 46 0;
#X connect 49 7 47 0;
#X connect 49 8 48 0;
#X connect 49 9 50 0;
#X connect 49 10 51 0;
#X connect 50 0 158 0;
#X connect 51 0 162 0;
#X connect 52 0 106 0;
#X connect 53 0 107 0;
#X connect 54 0 108 0;
#X connect 55 0 109 0;
#X connect 56 0 110 0;
#X connect 57 0 111 0;
#X connect 58 0 112 0;
#X connect 59 0 113 0;
#X connect 60 0 114 0;
#X connect 61 0 52 0;
#X connect 61 1 53 0;
#X connect 61 2 54 0;
#X connect 61 3 55 0;
#X connect 61 4 56 0;
#X connect 61 5 57 0;
#X connect 61 6 58 0;
#X connect 61 7 59 0;
#X connect 61 8 60 0;
#X connect 61 9 62 0;
#X connect 61 10 63 0;
#X connect 62 0 159 0;
#X connect 63 0 165 0;
#X connect 64 0 98 0;
#X connect 65 0 99 0;
#X connect 66 0 100 0;
#X connect 67 0 102 0;
#X connect 68 0 101 0;
#X connect 69 0 103 0;
#X connect 70 0 104 0;
#X connect 71 0 72 0;
#X connect 73 0 105 0;
#X connect 74 0 64 0;
#X connect 74 1 65 0;
#X connect 74 2 66 0;
#X connect 74 3 67 0;
#X connect 74 4 68 0;
#X connect 74 5 69 0;
#X connect 74 6 70 0;
#X connect 74 7 71 0;
#X connect 74 8 73 0;
#X connect 74 9 75 0;
#X connect 74 10 76 0;
#X connect 75 0 160 0;
#X connect 76 0 166 0;
#X connect 77 0 89 0;
#X connect 78 0 90 0;
#X connect 79 0 91 0;
#X connect 80 0 92 0;
#X connect 81 0 93 0;
#X connect 82 0 94 0;
#X connect 83 0 95 0;
#X connect 84 0 96 0;
#X connect 85 0 97 0;
#X connect 86 0 77 0;
#X connect 86 1 78 0;
#X connect 86 2 79 0;
#X connect 86 3 80 0;
#X connect 86 4 81 0;
#X connect 86 5 82 0;
#X connect 86 6 83 0;
#X connect 86 7 84 0;
#X connect 86 8 85 0;
#X connect 86 9 87 0;
#X connect 86 10 88 0;
#X connect 87 0 161 0;
#X connect 88 0 167 0;
#X connect 133 0 2 0;
#X connect 144 0 25 0;
#X connect 144 1 37 0;
#X connect 144 2 49 0;
#X connect 144 3 61 0;
#X connect 144 4 74 0;
#X connect 144 5 86 0;
#X connect 144 6 145 0;
#X connect 155 0 4 0;
#X connect 155 0 5 0;
#X connect 156 0 140 0;
#X connect 157 0 138 0;
#X connect 158 0 136 0;
#X connect 159 0 146 0;
#X connect 160 0 135 0;
#X connect 161 0 142 0;
#X connect 162 0 137 0;
#X connect 163 0 141 0;
#X connect 164 0 139 0;
#X connect 165 0 147 0;
#X connect 166 0 134 0;
#X connect 167 0 143 0;
#X restore 79 87 pd esqueleto;
#N canvas 404 107 947 661 videos 0;
#N canvas 444 173 922 595 janela 0;
#X msg 322 196 0 \, destroy;
#X obj 150 213 gemwin;
#X obj 150 6 inlet;
#X obj 148 51 t b b;
#X obj 322 170 inlet;
#X msg 177 81 dimen 3840 1080;
#X msg 326 137 0 \, destroy;
#N canvas 107 24 450 300 esc 0;
#X obj 65 20 gemkeyboard;
#X obj 65 167 outlet;
#X obj 89 71 keyname;
#X obj 128 96 sel Escape;
#X obj 65 41 sel 53;
#X obj 189 47 sel Escape;
#X obj 150 22 gemkeyname;
#X connect 0 0 4 0;
#X connect 2 1 3 0;
#X connect 3 0 1 0;
#X connect 4 0 1 0;
#X connect 5 0 1 0;
#X connect 6 1 5 0;
#X restore 324 106 pd esc;
#X msg 106 119 reset \, fullscreen 1 \, create \, 1;
#X connect 0 0 1 0;
#X connect 2 0 3 0;
#X connect 3 0 8 0;
#X connect 3 1 5 0;
#X connect 4 0 0 0;
#X connect 5 0 1 0;
#X connect 6 0 1 0;
#X connect 7 0 6 0;
#X connect 8 0 1 0;
#X restore 649 428 pd janela;
#X obj 649 391 bng 15 250 50 0 empty empty empty 17 7 0 10 -262144
-1 -1;
#X obj 700 392 bng 15 250 50 0 empty empty empty 17 7 0 10 -262144
-1 -1;
#X obj 649 344 loadbang;
#N canvas 0 186 1351 489 videoA 0;
#X obj 120 159 pix_film;
#X obj 142 203 unpack f f f;
#X floatatom 142 239 5 0 0 0 - - -;
#X floatatom 176 239 5 0 0 0 - - -;
#X floatatom 211 240 5 0 0 0 - - -;
#X obj 318 -32 tgl 15 0 empty clearAll empty 17 7 0 10 -262144 -1 -1
1 1;
#X obj 120 -47 tgl 15 0 empty g0 empty 17 7 0 10 -262144 -1 -1 1 1
;
#X obj 318 0 metro 50;
#X floatatom 363 -38 5 0 0 0 - - -;
#X obj 189 176 bng 15 250 50 0 empty empty empty 17 7 0 10 -262144
-1 -1;
#X obj 120 663 outlet;
#X obj 120 371 pix_gain;
#X floatatom 142 328 5 0 0 1 common - -;
#X floatatom 322 213 5 0 0 0 - - -;
#X floatatom 350 273 5 0 0 0 - - -;
#X floatatom 379 294 5 0 0 0 - - -;
#X msg 322 354 \$1 \$2 \$3;
#X obj 322 327 pack f f f;
#X obj 305 289 bng 15 250 50 0 empty empty empty 17 7 0 10 -262144
-1 -1;
#X msg 176 -10 auto 1;
#X obj 560 159 pix_film;
#X obj 582 203 unpack f f f;
#X floatatom 582 239 5 0 0 0 - - -;
#X floatatom 616 239 5 0 0 0 - - -;
#X floatatom 651 240 5 0 0 0 - - -;
#X obj 758 -32 tgl 15 0 empty clearAll empty 17 7 0 10 -262144 -1 -1
0 1;
#X obj 560 -47 tgl 15 0 empty g1 empty 17 7 0 10 -262144 -1 -1 0 1
;
#X obj 758 0 metro 50;
#X floatatom 803 -38 5 0 0 0 - - -;
#X obj 629 176 bng 15 250 50 0 empty empty empty 17 7 0 10 -262144
-1 -1;
#X obj 560 371 pix_gain;
#X floatatom 582 328 5 0 0 1 common - -;
#X floatatom 762 213 5 0 0 0 - - -;
#X floatatom 790 273 5 0 0 0 - - -;
#X floatatom 819 294 5 0 0 0 - - -;
#X msg 762 354 \$1 \$2 \$3;
#X obj 762 327 pack f f f;
#X obj 745 289 bng 15 250 50 0 empty empty empty 17 7 0 10 -262144
-1 -1;
#X obj 1020 159 pix_film;
#X obj 1042 203 unpack f f f;
#X floatatom 1042 239 5 0 0 0 - - -;
#X floatatom 1076 239 5 0 0 0 - - -;
#X floatatom 1111 240 5 0 0 0 - - -;
#X obj 1218 -32 tgl 15 0 empty clearAll empty 17 7 0 10 -262144 -1
-1 0 1;
#X obj 1020 -47 tgl 15 0 empty g2 empty 17 7 0 10 -262144 -1 -1 0 1
;
#X obj 1218 0 metro 50;
#X floatatom 1263 -38 5 0 0 0 - - -;
#X obj 1089 176 bng 15 250 50 0 empty empty empty 17 7 0 10 -262144
-1 -1;
#X obj 1020 371 pix_gain;
#X floatatom 1042 328 5 0 0 1 common - -;
#X floatatom 1222 213 5 0 0 0 - - -;
#X floatatom 1250 273 5 0 0 0 - - -;
#X floatatom 1279 294 5 0 0 0 - - -;
#X msg 1222 354 \$1 \$2 \$3;
#X obj 1222 327 pack f f f;
#X obj 1205 289 bng 15 250 50 0 empty empty empty 17 7 0 10 -262144
-1 -1;
#X msg 1076 -13 auto 1;
#X obj 322 170 r red0;
#X obj 350 232 r green0;
#X obj 379 255 r blue0;
#X obj 762 170 r red1;
#X obj 790 232 r green1;
#X obj 819 255 r blue1;
#X obj 655 354 r play1out;
#X obj 1222 170 r red2;
#X obj 1250 232 r green2;
#X obj 1279 255 r blue2;
#X obj 233 357 r play0out;
#X obj 1115 354 r play2out;
#X obj 120 552 translateXYZ;
#X floatatom 143 438 5 0 0 0 - - -;
#X floatatom 166 483 5 0 0 0 - - -;
#X floatatom 189 528 5 0 0 0 - - -;
#X obj 560 663 outlet;
#X obj 560 552 translateXYZ;
#X floatatom 583 438 5 0 0 0 - - -;
#X floatatom 606 483 5 0 0 0 - - -;
#X floatatom 629 528 5 0 0 0 - - -;
#X obj 1020 663 outlet;
#X obj 1020 552 translateXYZ;
#X floatatom 1043 438 5 0 0 0 - - -;
#X floatatom 1066 483 5 0 0 0 - - -;
#X floatatom 1089 528 5 0 0 0 - - -;
#X obj 143 408 r X0;
#X obj 166 458 r Y0;
#X obj 189 503 r Z0;
#X obj 583 408 r X1;
#X obj 606 458 r Y1;
#X obj 629 503 r Z1;
#X obj 1043 408 r X2;
#X obj 1066 458 r Y2;
#X obj 1089 503 r Z2;
#X obj 176 47 r open0;
#X obj 608 54 r open1;
#X obj 1074 64 r open2;
#X obj 318 142 counter 5414;
#X obj 758 142 counter 2669;
#X obj 1218 142 counter 3146;
#X msg 616 -12 auto 1;
#X floatatom 776 58 5 0 0 0 - - -;
#X obj 142 291 r gain0;
#X obj 582 291 r gain1;
#X obj 1042 291 r gain2;
#X obj 120 -14 gemhead;
#X obj 560 -14 gemhead;
#X obj 1020 -14 gemhead;
#X msg 349 561 1;
#X obj 292 544 t b b;
#X obj 244 560 bng 15 250 50 0 empty empty empty 17 7 0 10 -262144
-1 -1;
#X msg 292 584 1;
#X obj 120 601 pix_background;
#X obj 244 530 r in0;
#X obj 292 517 r out0;
#X obj 349 582 s play0out;
#X msg 789 571 1;
#X obj 732 554 t b b;
#X obj 684 570 bng 15 250 50 0 empty empty empty 17 7 0 10 -262144
-1 -1;
#X msg 684 594 -1;
#X msg 732 594 1;
#X obj 560 611 pix_background;
#X obj 684 541 r in1;
#X obj 732 527 r out1;
#X obj 789 592 s play1out;
#X msg 1249 581 1;
#X obj 1192 564 t b b;
#X obj 1144 580 bng 15 250 50 0 empty empty empty 17 7 0 10 -262144
-1 -1;
#X msg 1144 604 -1;
#X msg 1192 604 1;
#X obj 1020 621 pix_background;
#X obj 1144 550 r in2;
#X obj 1192 537 r out2;
#X obj 1249 602 s play2out;
#N canvas 692 93 674 615 player 0;
#X floatatom 266 5 5 0 0 0 - - -;
#X obj 262 -56 bng 15 250 50 0 empty empty empty 17 7 0 10 -262144
-1 -1;
#X obj 266 -26 counter 2;
#X obj 266 42 sel 0 1 2;
#X obj 266 76 bng 15 250 50 0 empty empty empty 17 7 0 10 -262144 -1
-1;
#X obj 283 76 bng 15 250 50 0 empty empty empty 17 7 0 10 -262144 -1
-1;
#X obj 300 77 bng 15 250 50 0 empty empty empty 17 7 0 10 -262144 -1
-1;
#X msg 246 119 1 0 0;
#X msg 288 119 0 1 0;
#X msg 330 119 0 0 1;
#X obj 256 -86 metro 40000;
#X obj 249 184 unpack f f f;
#X floatatom 248 220 5 0 0 0 - - -;
#X floatatom 287 221 5 0 0 0 - - -;
#X floatatom 322 222 5 0 0 0 - - -;
#X obj 256 -123 inlet;
#X obj 248 258 outlet;
#X obj 290 258 outlet;
#X obj 334 259 outlet;
#X obj 376 -160 unpack f f f;
#X msg 376 25 0;
#X msg 410 -28 1;
#X msg 445 -81 2;
#X obj 376 -190 r playerA;
#X obj 410 -53 sel 1;
#X obj 445 -103 sel 1;
#X obj 376 -1 sel 1;
#X connect 0 0 3 0;
#X connect 1 0 2 0;
#X connect 2 0 0 0;
#X connect 3 0 4 0;
#X connect 3 1 5 0;
#X connect 3 2 6 0;
#X connect 4 0 7 0;
#X connect 5 0 8 0;
#X connect 6 0 9 0;
#X connect 7 0 11 0;
#X connect 8 0 11 0;
#X connect 9 0 11 0;
#X connect 10 0 1 0;
#X connect 11 0 12 0;
#X connect 11 1 13 0;
#X connect 11 2 14 0;
#X connect 12 0 16 0;
#X connect 13 0 17 0;
#X connect 14 0 18 0;
#X connect 15 0 10 0;
#X connect 19 0 26 0;
#X connect 19 1 24 0;
#X connect 19 2 25 0;
#X connect 20 0 3 0;
#X connect 21 0 3 0;
#X connect 22 0 3 0;
#X connect 23 0 19 0;
#X connect 24 0 21 0;
#X connect 25 0 22 0;
#X connect 26 0 20 0;
#X restore 719 -209 pd player;
#X obj 719 -232 tgl 15 0 empty startA empty 17 7 0 10 -262144 -1 -1
1 1;
#X msg 244 584 -1;
#X obj 1263 -75 r frame2;
#X obj 803 -81 r frame1;
#X obj 363 -75 r frame0;
#X obj 365 406 spigot;
#X obj 398 379 tgl 15 0 empty empty empty 17 7 0 10 -262144 -1 -1 1
1;
#X obj 398 343 r key0;
#X obj 820 382 spigot;
#X obj 853 355 tgl 15 0 empty empty empty 17 7 0 10 -262144 -1 -1 1
1;
#X obj 853 319 r key1;
#X obj 1295 396 spigot;
#X obj 1328 369 tgl 15 0 empty empty empty 17 7 0 10 -262144 -1 -1
0 1;
#X obj 1328 333 r key2;
#X msg 176 79 open C:/Users/Voxar/Documents/SnoopyFrevo/videos/01.avi
;
#X msg 608 82 open C:/Users/Voxar/Documents/SnoopyFrevo/videos/02.avi
;
#X msg 1069 102 open C:/Users/Voxar/Documents/SnoopyFrevo/videos/03.avi
;
#X connect 0 0 11 0;
#X connect 0 1 1 0;
#X connect 0 2 9 0;
#X connect 1 0 2 0;
#X connect 1 1 3 0;
#X connect 1 2 4 0;
#X connect 5 0 7 0;
#X connect 6 0 5 0;
#X connect 6 0 103 0;
#X connect 7 0 95 0;
#X connect 8 0 7 1;
#X connect 11 0 69 0;
#X connect 12 0 11 1;
#X connect 13 0 17 0;
#X connect 14 0 17 1;
#X connect 14 0 18 0;
#X connect 15 0 17 2;
#X connect 15 0 18 0;
#X connect 16 0 138 0;
#X connect 17 0 16 0;
#X connect 18 0 17 0;
#X connect 19 0 0 0;
#X connect 20 0 30 0;
#X connect 20 1 21 0;
#X connect 20 2 29 0;
#X connect 21 0 22 0;
#X connect 21 1 23 0;
#X connect 21 2 24 0;
#X connect 25 0 27 0;
#X connect 26 0 25 0;
#X connect 26 0 104 0;
#X connect 27 0 96 0;
#X connect 28 0 27 1;
#X connect 30 0 74 0;
#X connect 31 0 30 1;
#X connect 32 0 36 0;
#X connect 33 0 36 1;
#X connect 33 0 37 0;
#X connect 34 0 36 2;
#X connect 34 0 37 0;
#X connect 35 0 141 0;
#X connect 36 0 35 0;
#X connect 37 0 36 0;
#X connect 38 0 48 0;
#X connect 38 1 39 0;
#X connect 38 2 47 0;
#X connect 39 0 40 0;
#X connect 39 1 41 0;
#X connect 39 2 42 0;
#X connect 43 0 45 0;
#X connect 44 0 43 0;
#X connect 44 0 105 0;
#X connect 45 0 97 0;
#X connect 46 0 45 1;
#X connect 48 0 79 0;
#X connect 49 0 48 1;
#X connect 50 0 54 0;
#X connect 51 0 54 1;
#X connect 51 0 55 0;
#X connect 52 0 54 2;
#X connect 52 0 55 0;
#X connect 53 0 144 0;
#X connect 54 0 53 0;
#X connect 55 0 54 0;
#X connect 56 0 38 0;
#X connect 57 0 13 0;
#X connect 58 0 14 0;
#X connect 59 0 15 0;
#X connect 60 0 32 0;
#X connect 61 0 33 0;
#X connect 62 0 34 0;
#X connect 63 0 30 1;
#X connect 64 0 50 0;
#X connect 65 0 51 0;
#X connect 66 0 52 0;
#X connect 67 0 11 1;
#X connect 68 0 48 1;
#X connect 69 0 110 0;
#X connect 70 0 69 1;
#X connect 71 0 69 2;
#X connect 72 0 69 3;
#X connect 74 0 119 0;
#X connect 75 0 74 1;
#X connect 76 0 74 2;
#X connect 77 0 74 3;
#X connect 79 0 128 0;
#X connect 80 0 79 1;
#X connect 81 0 79 2;
#X connect 82 0 79 3;
#X connect 83 0 70 0;
#X connect 84 0 71 0;
#X connect 85 0 72 0;
#X connect 86 0 75 0;
#X connect 87 0 76 0;
#X connect 88 0 77 0;
#X connect 89 0 80 0;
#X connect 90 0 81 0;
#X connect 91 0 82 0;
#X connect 92 0 147 0;
#X connect 93 0 148 0;
#X connect 94 0 149 0;
#X connect 95 0 0 1;
#X connect 96 0 20 1;
#X connect 96 0 99 0;
#X connect 97 0 38 1;
#X connect 98 0 20 0;
#X connect 100 0 12 0;
#X connect 101 0 31 0;
#X connect 102 0 49 0;
#X connect 103 0 0 0;
#X connect 104 0 20 0;
#X connect 105 0 38 0;
#X connect 106 0 113 0;
#X connect 107 0 109 0;
#X connect 107 1 106 0;
#X connect 108 0 134 0;
#X connect 109 0 110 1;
#X connect 110 0 10 0;
#X connect 111 0 108 0;
#X connect 112 0 107 0;
#X connect 114 0 122 0;
#X connect 115 0 118 0;
#X connect 115 1 114 0;
#X connect 116 0 117 0;
#X connect 117 0 119 1;
#X connect 118 0 119 1;
#X connect 119 0 73 0;
#X connect 120 0 116 0;
#X connect 121 0 115 0;
#X connect 123 0 131 0;
#X connect 124 0 127 0;
#X connect 124 1 123 0;
#X connect 125 0 126 0;
#X connect 126 0 128 1;
#X connect 127 0 128 1;
#X connect 128 0 78 0;
#X connect 129 0 125 0;
#X connect 130 0 124 0;
#X connect 132 0 6 0;
#X connect 132 1 26 0;
#X connect 132 2 44 0;
#X connect 133 0 132 0;
#X connect 134 0 110 1;
#X connect 135 0 46 0;
#X connect 136 0 28 0;
#X connect 137 0 8 0;
#X connect 138 0 11 2;
#X connect 139 0 138 1;
#X connect 140 0 139 0;
#X connect 141 0 30 2;
#X connect 142 0 141 1;
#X connect 143 0 142 0;
#X connect 144 0 48 2;
#X connect 145 0 144 1;
#X connect 146 0 145 0;
#X connect 147 0 0 0;
#X connect 148 0 20 0;
#X connect 149 0 38 0;
#X restore 191 344 pd videoA;
#N canvas 0 93 1366 675 videoB 0;
#X obj 110 139 pix_film;
#X obj 132 183 unpack f f f;
#X floatatom 132 219 5 0 0 0 - - -;
#X floatatom 166 219 5 0 0 0 - - -;
#X floatatom 201 220 5 0 0 0 - - -;
#X obj 308 -52 tgl 15 0 empty clearAll empty 17 7 0 10 -262144 -1 -1
0 1;
#X obj 110 -67 tgl 15 0 empty g3 empty 17 7 0 10 -262144 -1 -1 0 1
;
#X obj 308 -20 metro 50;
#X floatatom 353 -58 5 0 0 0 - - -;
#X obj 179 156 bng 15 250 50 0 empty empty empty 17 7 0 10 -262144
-1 -1;
#X obj 110 351 pix_gain;
#X floatatom 132 308 5 0 0 1 common - -;
#X floatatom 312 193 5 0 0 0 - - -;
#X floatatom 340 253 5 0 0 0 - - -;
#X floatatom 369 274 5 0 0 0 - - -;
#X msg 312 334 \$1 \$2 \$3;
#X obj 312 307 pack f f f;
#X obj 295 269 bng 15 250 50 0 empty empty empty 17 7 0 10 -262144
-1 -1;
#X msg 166 -35 auto 1;
#X obj 205 334 r play3out;
#X obj 132 271 r gain3;
#X obj 312 150 r red3;
#X obj 340 212 r green3;
#X obj 369 235 r blue3;
#X obj 550 139 pix_film;
#X obj 572 183 unpack f f f;
#X floatatom 572 219 5 0 0 0 - - -;
#X floatatom 606 219 5 0 0 0 - - -;
#X floatatom 641 220 5 0 0 0 - - -;
#X obj 748 -52 tgl 15 0 empty clearAll empty 17 7 0 10 -262144 -1 -1
1 1;
#X obj 550 -67 tgl 15 0 empty g4 empty 17 7 0 10 -262144 -1 -1 1 1
;
#X obj 748 -20 metro 50;
#X floatatom 793 -58 5 0 0 0 - - -;
#X obj 619 156 bng 15 250 50 0 empty empty empty 17 7 0 10 -262144
-1 -1;
#X obj 550 351 pix_gain;
#X floatatom 572 308 5 0 0 1 common - -;
#X floatatom 752 193 5 0 0 0 - - -;
#X floatatom 780 253 5 0 0 0 - - -;
#X floatatom 809 274 5 0 0 0 - - -;
#X msg 752 334 \$1 \$2 \$3;
#X obj 752 307 pack f f f;
#X obj 735 269 bng 15 250 50 0 empty empty empty 17 7 0 10 -262144
-1 -1;
#X msg 606 -34 auto 1;
#X obj 752 150 r red4;
#X obj 780 212 r green4;
#X obj 809 235 r blue4;
#X obj 572 271 r gain4;
#X obj 1010 139 pix_film;
#X obj 1032 183 unpack f f f;
#X floatatom 1032 219 5 0 0 0 - - -;
#X floatatom 1066 219 5 0 0 0 - - -;
#X floatatom 1101 220 5 0 0 0 - - -;
#X obj 1208 -52 tgl 15 0 empty clearAll empty 17 7 0 10 -262144 -1
-1 0 1;
#X obj 1010 -67 tgl 15 0 empty g5 empty 17 7 0 10 -262144 -1 -1 0 1
;
#X obj 1208 -20 metro 50;
#X floatatom 1253 -58 5 0 0 0 - - -;
#X obj 1079 156 bng 15 250 50 0 empty empty empty 17 7 0 10 -262144
-1 -1;
#X obj 1010 351 pix_gain;
#X floatatom 1032 308 5 0 0 1 common - -;
#X floatatom 1212 193 5 0 0 0 - - -;
#X floatatom 1240 253 5 0 0 0 - - -;
#X floatatom 1269 274 5 0 0 0 - - -;
#X msg 1212 334 \$1 \$2 \$3;
#X obj 1212 307 pack f f f;
#X obj 1195 269 bng 15 250 50 0 empty empty empty 17 7 0 10 -262144
-1 -1;
#X msg 1066 -32 auto 1;
#X obj 1212 150 r red5;
#X obj 1240 212 r green5;
#X obj 1269 235 r blue5;
#X obj 645 334 r play4out;
#X obj 1105 334 r play5out;
#X obj 110 603 outlet;
#X obj 110 522 translateXYZ;
#X floatatom 133 408 5 0 0 0 - - -;
#X floatatom 156 453 5 0 0 0 - - -;
#X floatatom 179 498 5 0 0 0 - - -;
#X obj 133 378 r X3;
#X obj 156 428 r Y3;
#X obj 179 473 r Z3;
#X obj 550 603 outlet;
#X obj 550 522 translateXYZ;
#X floatatom 573 408 5 0 0 0 - - -;
#X floatatom 596 453 5 0 0 0 - - -;
#X floatatom 619 498 5 0 0 0 - - -;
#X obj 573 378 r X4;
#X obj 596 428 r Y4;
#X obj 619 473 r Z4;
#X obj 1010 603 outlet;
#X obj 1010 522 translateXYZ;
#X floatatom 1033 408 5 0 0 0 - - -;
#X floatatom 1056 453 5 0 0 0 - - -;
#X floatatom 1079 498 5 0 0 0 - - -;
#X obj 1033 378 r X5;
#X obj 1056 428 r Y5;
#X obj 1079 473 r Z5;
#X obj 152 70 r open3;
#X obj 587 70 r open4;
#X obj 1048 70 r open5;
#X obj 1032 271 r gain5;
#X floatatom 374 70 5 0 0 0 - - -;
#X obj 305 122 counter 4233;
#X obj 748 122 counter 4427;
#X obj 1208 122 counter 11569;
#X obj 110 -34 gemhead;
#X obj 550 -34 gemhead;
#X obj 1010 -34 gemhead;
#X obj 110 569 pix_background;
#X floatatom 191 539 5 0 0 0 - - -;
#X obj 550 568 pix_background;
#X floatatom 631 538 5 0 0 0 - - -;
#X obj 1010 568 pix_background;
#X floatatom 1091 538 5 0 0 0 - - -;
#X msg 341 499 1;
#X obj 236 468 r in3;
#X obj 284 455 r out3;
#X obj 341 520 s play3out;
#X obj 284 482 t b b;
#X obj 236 498 bng 15 250 50 0 empty empty empty 17 7 0 10 -262144
-1 -1;
#X msg 236 522 -1;
#X msg 284 522 1;
#X msg 791 498 1;
#X obj 734 481 t b b;
#X obj 686 497 bng 15 250 50 0 empty empty empty 17 7 0 10 -262144
-1 -1;
#X msg 686 521 -1;
#X msg 734 521 1;
#X obj 686 467 r in4;
#X obj 734 454 r out4;
#X obj 791 519 s play4out;
#X msg 1261 498 1;
#X obj 1204 481 t b b;
#X obj 1156 497 bng 15 250 50 0 empty empty empty 17 7 0 10 -262144
-1 -1;
#X msg 1156 521 -1;
#X msg 1204 521 1;
#X obj 1156 467 r in5;
#X obj 1204 454 r out5;
#X obj 1261 519 s play5out;
#N canvas 692 115 674 615 player 0;
#X floatatom 266 5 5 0 0 0 - - -;
#X obj 262 -56 bng 15 250 50 0 empty empty empty 17 7 0 10 -262144
-1 -1;
#X obj 266 -26 counter 2;
#X obj 266 42 sel 0 1 2;
#X obj 266 76 bng 15 250 50 0 empty empty empty 17 7 0 10 -262144 -1
-1;
#X obj 283 76 bng 15 250 50 0 empty empty empty 17 7 0 10 -262144 -1
-1;
#X obj 300 77 bng 15 250 50 0 empty empty empty 17 7 0 10 -262144 -1
-1;
#X msg 246 119 1 0 0;
#X msg 288 119 0 1 0;
#X msg 330 119 0 0 1;
#X obj 256 -86 metro 40000;
#X obj 249 184 unpack f f f;
#X floatatom 248 220 5 0 0 0 - - -;
#X floatatom 287 221 5 0 0 0 - - -;
#X floatatom 322 222 5 0 0 0 - - -;
#X obj 256 -123 inlet;
#X obj 248 258 outlet;
#X obj 290 258 outlet;
#X obj 334 259 outlet;
#X obj 376 -160 unpack f f f;
#X msg 376 25 0;
#X msg 410 -28 1;
#X msg 445 -81 2;
#X obj 376 -190 r playerB;
#X obj 445 -103 sel 1;
#X obj 410 -53 sel 1;
#X obj 376 -1 sel 1;
#X connect 0 0 3 0;
#X connect 1 0 2 0;
#X connect 2 0 0 0;
#X connect 3 0 4 0;
#X connect 3 1 5 0;
#X connect 3 2 6 0;
#X connect 4 0 7 0;
#X connect 5 0 8 0;
#X connect 6 0 9 0;
#X connect 7 0 11 0;
#X connect 8 0 11 0;
#X connect 9 0 11 0;
#X connect 10 0 1 0;
#X connect 11 0 12 0;
#X connect 11 1 13 0;
#X connect 11 2 14 0;
#X connect 12 0 16 0;
#X connect 13 0 17 0;
#X connect 14 0 18 0;
#X connect 15 0 10 0;
#X connect 19 0 26 0;
#X connect 19 1 25 0;
#X connect 19 2 24 0;
#X connect 20 0 3 0;
#X connect 21 0 3 0;
#X connect 22 0 3 0;
#X connect 23 0 19 0;
#X connect 24 0 22 0;
#X connect 25 0 21 0;
#X connect 26 0 20 0;
#X restore 709 -156 pd player;
#X obj 709 -179 tgl 15 0 empty startB empty 17 7 0 10 -262144 -1 -1
1 1;
#X obj 1253 -102 r frame5;
#X obj 793 -107 r frame4;
#X obj 353 -101 r frame3;
#X obj 347 387 spigot;
#X obj 380 360 tgl 15 0 empty empty empty 17 7 0 10 -262144 -1 -1 0
1;
#X obj 380 324 r key3;
#X obj 811 374 spigot;
#X obj 844 347 tgl 15 0 empty empty empty 17 7 0 10 -262144 -1 -1 1
1;
#X obj 844 311 r key4;
#X obj 1274 379 spigot;
#X obj 1307 352 tgl 15 0 empty empty empty 17 7 0 10 -262144 -1 -1
1 1;
#X obj 1307 316 r key5;
#X msg 587 103 open C:/Users/Voxar/Documents/SnoopyFrevo/videos/05.avi
;
#X msg 152 99 open C:/Users/Voxar/Documents/SnoopyFrevo/videos/04.avi
;
#X msg 1036 100 open C:/Users/Voxar/Documents/SnoopyFrevo/videos/06.avi
;
#X connect 0 0 10 0;
#X connect 0 1 1 0;
#X connect 0 2 9 0;
#X connect 1 0 2 0;
#X connect 1 1 3 0;
#X connect 1 2 4 0;
#X connect 5 0 7 0;
#X connect 6 0 5 0;
#X connect 6 0 103 0;
#X connect 7 0 100 0;
#X connect 8 0 7 1;
#X connect 10 0 72 0;
#X connect 11 0 10 1;
#X connect 12 0 16 0;
#X connect 13 0 16 1;
#X connect 13 0 17 0;
#X connect 14 0 16 2;
#X connect 14 0 17 0;
#X connect 15 0 141 0;
#X connect 16 0 15 0;
#X connect 17 0 16 0;
#X connect 18 0 0 0;
#X connect 19 0 10 1;
#X connect 20 0 11 0;
#X connect 21 0 12 0;
#X connect 22 0 13 0;
#X connect 23 0 14 0;
#X connect 24 0 34 0;
#X connect 24 1 25 0;
#X connect 24 2 33 0;
#X connect 25 0 26 0;
#X connect 25 1 27 0;
#X connect 25 2 28 0;
#X connect 29 0 31 0;
#X connect 30 0 29 0;
#X connect 30 0 104 0;
#X connect 31 0 101 0;
#X connect 32 0 31 1;
#X connect 34 0 80 0;
#X connect 35 0 34 1;
#X connect 36 0 40 0;
#X connect 37 0 40 1;
#X connect 37 0 41 0;
#X connect 38 0 40 2;
#X connect 38 0 41 0;
#X connect 39 0 144 0;
#X connect 40 0 39 0;
#X connect 41 0 40 0;
#X connect 42 0 24 0;
#X connect 43 0 36 0;
#X connect 44 0 37 0;
#X connect 45 0 38 0;
#X connect 46 0 35 0;
#X connect 47 0 57 0;
#X connect 47 1 48 0;
#X connect 47 2 56 0;
#X connect 48 0 49 0;
#X connect 48 1 50 0;
#X connect 48 2 51 0;
#X connect 52 0 54 0;
#X connect 53 0 52 0;
#X connect 53 0 105 0;
#X connect 54 0 102 0;
#X connect 55 0 54 1;
#X connect 57 0 88 0;
#X connect 58 0 57 1;
#X connect 59 0 63 0;
#X connect 60 0 63 1;
#X connect 60 0 64 0;
#X connect 61 0 63 2;
#X connect 61 0 64 0;
#X connect 62 0 147 0;
#X connect 63 0 62 0;
#X connect 64 0 63 0;
#X connect 65 0 47 0;
#X connect 66 0 59 0;
#X connect 67 0 60 0;
#X connect 68 0 61 0;
#X connect 69 0 34 1;
#X connect 70 0 57 1;
#X connect 72 0 106 0;
#X connect 73 0 72 1;
#X connect 74 0 72 2;
#X connect 75 0 72 3;
#X connect 76 0 73 0;
#X connect 77 0 74 0;
#X connect 78 0 75 0;
#X connect 80 0 108 0;
#X connect 81 0 80 1;
#X connect 82 0 80 2;
#X connect 83 0 80 3;
#X connect 84 0 81 0;
#X connect 85 0 82 0;
#X connect 86 0 83 0;
#X connect 88 0 110 0;
#X connect 89 0 88 1;
#X connect 90 0 88 2;
#X connect 91 0 88 3;
#X connect 92 0 89 0;
#X connect 93 0 90 0;
#X connect 94 0 91 0;
#X connect 95 0 151 0;
#X connect 96 0 150 0;
#X connect 97 0 152 0;
#X connect 98 0 58 0;
#X connect 100 0 0 1;
#X connect 100 0 99 0;
#X connect 101 0 24 1;
#X connect 102 0 47 1;
#X connect 103 0 0 0;
#X connect 104 0 24 0;
#X connect 105 0 47 0;
#X connect 106 0 71 0;
#X connect 107 0 106 1;
#X connect 108 0 79 0;
#X connect 109 0 108 1;
#X connect 110 0 87 0;
#X connect 111 0 110 1;
#X connect 112 0 115 0;
#X connect 113 0 117 0;
#X connect 114 0 116 0;
#X connect 116 0 119 0;
#X connect 116 1 112 0;
#X connect 117 0 118 0;
#X connect 118 0 107 0;
#X connect 119 0 107 0;
#X connect 120 0 127 0;
#X connect 121 0 124 0;
#X connect 121 1 120 0;
#X connect 122 0 123 0;
#X connect 123 0 109 0;
#X connect 124 0 109 0;
#X connect 125 0 122 0;
#X connect 126 0 121 0;
#X connect 128 0 135 0;
#X connect 129 0 132 0;
#X connect 129 1 128 0;
#X connect 130 0 131 0;
#X connect 131 0 111 0;
#X connect 132 0 111 0;
#X connect 133 0 130 0;
#X connect 134 0 129 0;
#X connect 136 0 6 0;
#X connect 136 1 30 0;
#X connect 136 2 53 0;
#X connect 137 0 136 0;
#X connect 138 0 55 0;
#X connect 139 0 32 0;
#X connect 140 0 8 0;
#X connect 141 0 10 2;
#X connect 142 0 141 1;
#X connect 143 0 142 0;
#X connect 144 0 34 2;
#X connect 145 0 144 1;
#X connect 146 0 145 0;
#X connect 147 0 57 2;
#X connect 148 0 147 1;
#X connect 149 0 148 0;
#X connect 150 0 24 0;
#X connect 151 0 0 0;
#X connect 152 0 47 0;
#X restore 509 344 pd videoB;
#N canvas 540 93 744 675 opening 0;
#X obj 150 79 metro 1000;
#X floatatom 150 145 5 0 0 0 - - -;
#X obj 150 50 tgl 15 0 empty empty empty 17 7 0 10 -262144 -1 -1 0
1;
#X obj 199 1513 s open0;
#X msg 335 233 0;
#X obj 150 -14 loadbang;
#X msg 150 16 1;
#X msg 179 1562 1;
#X obj 179 1591 s g0;
#X obj 160 1672 s g0;
#X obj 160 1614 del 100;
#X obj 179 1533 del 100;
#X obj 160 1486 t b b b;
#X msg 160 1643 0;
#X msg 196 1353 1;
#X obj 177 1405 del 100;
#X obj 196 1324 del 100;
#X obj 177 1263 t b b b;
#X msg 177 1434 0;
#X obj 216 1300 s open1;
#X obj 177 1463 s g1;
#X obj 196 1382 s g1;
#X msg 209 1113 1;
#X obj 190 1165 del 100;
#X obj 209 1084 del 100;
#X obj 190 1037 t b b b;
#X msg 190 1194 0;
#X msg 223 904 1;
#X obj 204 956 del 100;
#X obj 223 875 del 100;
#X obj 204 814 t b b b;
#X msg 204 985 0;
#X msg 238 663 1;
#X obj 219 715 del 100;
#X obj 238 634 del 100;
#X obj 219 587 t b b b;
#X msg 219 744 0;
#X msg 252 454 1;
#X obj 233 506 del 100;
#X obj 252 425 del 100;
#X obj 233 364 t b b b;
#X msg 233 535 0;
#X obj 272 401 s open5;
#X obj 252 483 s g5;
#X obj 233 564 s g5;
#X obj 258 614 s open4;
#X obj 238 692 s g4;
#X obj 219 773 s g4;
#X obj 243 851 s open3;
#X obj 223 933 s g3;
#X obj 204 1014 s g3;
#X obj 229 1064 s open2;
#X obj 209 1142 s g2;
#X obj 190 1223 s g2;
#X obj 150 180 sel 1 2 3 4 5 6 7 8;
#X obj 247 216 t b b b;
#X msg 266 240 1;
#X msg 247 294 1;
#X obj 247 320 s startA;
#X obj 266 267 s startB;
#X obj 150 113 counter 8;
#X connect 0 0 60 0;
#X connect 1 0 54 0;
#X connect 2 0 0 0;
#X connect 4 0 2 0;
#X connect 5 0 6 0;
#X connect 6 0 2 0;
#X connect 7 0 8 0;
#X connect 10 0 13 0;
#X connect 11 0 7 0;
#X connect 12 0 10 0;
#X connect 12 1 11 0;
#X connect 12 2 3 0;
#X connect 13 0 9 0;
#X connect 14 0 21 0;
#X connect 15 0 18 0;
#X connect 16 0 14 0;
#X connect 17 0 15 0;
#X connect 17 1 16 0;
#X connect 17 2 19 0;
#X connect 18 0 20 0;
#X connect 22 0 52 0;
#X connect 23 0 26 0;
#X connect 24 0 22 0;
#X connect 25 0 23 0;
#X connect 25 1 24 0;
#X connect 25 2 51 0;
#X connect 26 0 53 0;
#X connect 27 0 49 0;
#X connect 28 0 31 0;
#X connect 29 0 27 0;
#X connect 30 0 28 0;
#X connect 30 1 29 0;
#X connect 30 2 48 0;
#X connect 31 0 50 0;
#X connect 32 0 46 0;
#X connect 33 0 36 0;
#X connect 34 0 32 0;
#X connect 35 0 33 0;
#X connect 35 1 34 0;
#X connect 35 2 45 0;
#X connect 36 0 47 0;
#X connect 37 0 43 0;
#X connect 38 0 41 0;
#X connect 39 0 37 0;
#X connect 40 0 38 0;
#X connect 40 1 39 0;
#X connect 40 2 42 0;
#X connect 41 0 44 0;
#X connect 54 1 12 0;
#X connect 54 2 17 0;
#X connect 54 3 25 0;
#X connect 54 4 30 0;
#X connect 54 5 35 0;
#X connect 54 6 40 0;
#X connect 54 7 55 0;
#X connect 55 0 57 0;
#X connect 55 1 56 0;
#X connect 55 2 4 0;
#X connect 56 0 59 0;
#X connect 57 0 58 0;
#X connect 60 0 1 0;
#X restore 650 475 pd opening;
#X obj 199 512 pix_texture;
#X obj 199 540 rectangle 6 4;
#X obj 360 361 pix_chroma_key;
#X msg 635 245 direction \$1;
#X obj 635 225 tgl 15 1 empty empty empty 0 -6 0 8 -262144 -1 -1 1
1;
#X floatatom 182 233 5 0 255 0 - - -;
#X floatatom 385 232 5 0 255 0 - - -;
#X obj 388 218 hsl 128 12 0 1 0 0 empty empty empty -2 -8 0 10 -262144
-1 -1 8387 1;
#X obj 185 218 hsl 128 12 0 1 0 0 empty empty empty -2 -8 0 10 -262144
-1 -1 3043 1;
#X msg 182 250 value \$1 \$1 \$1;
#X msg 385 250 range \$1 \$1 \$1;
#N canvas 285 312 527 537 mixer 0;
#X obj 29 46 r mixerA;
#X obj 222 37 r mixerB;
#X obj 48 271 line 200;
#X floatatom 48 299 5 0 0 0 - - -;
#X obj 48 328 outlet;
#X obj 29 79 bng 15 250 50 0 empty empty empty 17 7 0 10 -262144 -1
-1;
#X obj 222 71 bng 15 250 50 0 empty empty empty 17 7 0 10 -262144 -1
-1;
#X obj 29 454 line 200;
#X floatatom 29 482 5 0 0 0 - - -;
#X obj 29 511 outlet;
#X obj 29 101 t b b b;
#X obj 222 96 t b b b;
#X obj 457 482 outlet;
#X msg 86 116 1;
#X msg 457 113 0;
#X msg 29 376 0.1 2000;
#X msg 48 165 0.8 2000;
#X msg 205 151 0.1 2000;
#X msg 269 150 0.8 2000;
#X connect 0 0 5 0;
#X connect 1 0 6 0;
#X connect 2 0 3 0;
#X connect 3 0 4 0;
#X connect 5 0 10 0;
#X connect 6 0 11 0;
#X connect 7 0 8 0;
#X connect 8 0 9 0;
#X connect 10 0 15 0;
#X connect 10 1 16 0;
#X connect 10 2 13 0;
#X connect 11 0 17 0;
#X connect 11 1 18 0;
#X connect 11 2 14 0;
#X connect 13 0 12 0;
#X connect 14 0 12 0;
#X connect 15 0 7 0;
#X connect 16 0 2 0;
#X connect 17 0 2 0;
#X connect 18 0 7 0;
#X restore 342 134 pd mixer ------;
#X obj 335 515 b4plane;
#X obj 778 418 loadbang;
#X obj 778 447 del 4000;
#X connect 1 0 0 0;
#X connect 2 0 0 1;
#X connect 3 0 1 0;
#X connect 4 0 9 0;
#X connect 4 1 9 0;
#X connect 4 2 9 0;
#X connect 5 0 9 1;
#X connect 5 1 9 1;
#X connect 5 2 9 1;
#X connect 7 0 8 0;
#X connect 8 0 19 0;
#X connect 9 0 7 0;
#X connect 10 0 9 0;
#X connect 11 0 10 0;
#X connect 12 0 16 0;
#X connect 13 0 17 0;
#X connect 14 0 13 0;
#X connect 15 0 12 0;
#X connect 16 0 9 0;
#X connect 17 0 9 0;
#X connect 18 0 15 0;
#X connect 18 1 14 0;
#X connect 18 2 11 0;
#X connect 20 0 21 0;
#X connect 21 0 19 1;
#X restore 160 87 pd videos;
#N canvas 2546 146 659 507 som 1;
#N canvas 1005 92 694 675 track0 0;
#X obj 70 347 Brane-e;
#X msg 417 253 speed \$1;
#X obj 290 71 r in0;
#X obj 330 71 r out0;
#X msg 290 236 master 100;
#X msg 290 172 100 1000;
#X msg 330 129 0 1000;
#X obj 290 209 line 200;
#X obj 417 68 r velocity0;
#X obj 417 117 < 2;
#X obj 417 152 sel 1;
#X obj 417 230 line 200;
#X obj 487 152 sel 1;
#X obj 487 117 > 2;
#X msg 487 196 100 1000;
#X obj 557 152 sel 1;
#X obj 557 117 > 10;
#X msg 231 236 play 1;
#X obj 153 198 r out0;
#X msg 153 234 play 0;
#X obj 231 199 r in0;
#X msg 417 196 40 1000;
#X obj 561 231 del 100;
#X obj 70 724 outlet~;
#X obj 469 289 line 200;
#X msg 491 256 10 1000;
#X msg 468 316 master \$1;
#X msg 561 256 100 1000;
#X msg 557 196 140 1000;
#X obj 28 14 loadbang;
#X msg 28 41 open C:/Users/Voxar/Documents/SnoopyFrevo/audio/base.wav
;
#X obj 70 662 *~ 2;
#X connect 0 0 31 0;
#X connect 1 0 0 3;
#X connect 2 0 5 0;
#X connect 3 0 6 0;
#X connect 4 0 0 3;
#X connect 5 0 7 0;
#X connect 6 0 7 0;
#X connect 7 0 4 0;
#X connect 8 0 9 0;
#X connect 8 0 13 0;
#X connect 8 0 16 0;
#X connect 9 0 10 0;
#X connect 10 0 21 0;
#X connect 10 0 25 0;
#X connect 11 0 1 0;
#X connect 12 0 14 0;
#X connect 12 0 22 0;
#X connect 13 0 12 0;
#X connect 14 0 11 0;
#X connect 15 0 28 0;
#X connect 16 0 15 0;
#X connect 17 0 0 3;
#X connect 18 0 19 0;
#X connect 19 0 0 3;
#X connect 20 0 17 0;
#X connect 21 0 11 0;
#X connect 22 0 27 0;
#X connect 24 0 26 0;
#X connect 25 0 24 0;
#X connect 26 0 0 3;
#X connect 27 0 24 0;
#X connect 28 0 11 0;
#X connect 29 0 30 0;
#X connect 30 0 0 2;
#X connect 31 0 23 0;
#X restore 138 194 pd track0;
#N canvas 23 153 949 675 track1 0;
#X msg 307 196 0 1000;
#X obj 366 155 sel 1;
#X obj 366 233 line 200;
#X obj 443 155 sel 1;
#X obj 307 138 r out1;
#X obj 366 71 r velocity1;
#X obj 301 627 outlet~;
#X obj 665 371 r green1;
#X obj 776 365 r blue1;
#X obj 744 477 r Z1;
#X obj 251 254 bng 15 250 50 0 empty empty empty 17 7 0 10 -262144
-1 -1;
#X obj 308 283 tgl 15 0 empty empty empty 17 7 0 10 -262144 -1 -1 1
1;
#X obj 279 254 bng 15 250 50 0 empty empty empty 17 7 0 10 -262144
-1 -1;
#X obj 251 306 echantillon sax.wav;
#X obj 438 454 st-delayfb;
#X obj 300 497 *~ 1;
#X obj 438 609 spigot~;
#X obj 477 545 tgl 15 0 empty empty empty 17 7 0 10 -262144 -1 -1 1
1;
#X obj 793 167 t b b;
#X msg 820 208 1;
#X msg 785 209 0;
#X obj 721 169 t b b;
#X msg 713 211 1;
#X msg 748 210 0;
#X msg 744 547 2 \$1;
#X msg 776 438 1 \$1;
#X msg 665 437 0 \$1;
#X obj 308 233 loadbang;
#X msg 308 262 1;
#X obj 744 514 autoscale 0 0.5;
#X obj 665 407 autoscale 0.3 0.7;
#X obj 776 406 autoscale 0.3 0.7;
#X msg 443 199 1 1000;
#X obj 366 120 <= 5;
#X obj 188 166 r in1;
#X obj 443 120 >= 4;
#X msg 366 199 0.5 1000;
#X connect 0 0 2 0;
#X connect 1 0 36 0;
#X connect 1 0 21 0;
#X connect 2 0 13 4;
#X connect 3 0 32 0;
#X connect 3 0 21 0;
#X connect 3 0 18 0;
#X connect 4 0 0 0;
#X connect 4 0 12 0;
#X connect 5 0 33 0;
#X connect 5 0 35 0;
#X connect 7 0 30 0;
#X connect 8 0 31 0;
#X connect 9 0 29 0;
#X connect 10 0 13 0;
#X connect 11 0 13 2;
#X connect 12 0 13 1;
#X connect 13 0 14 0;
#X connect 13 0 14 1;
#X connect 13 0 15 0;
#X connect 14 0 16 0;
#X connect 14 1 16 0;
#X connect 15 0 6 0;
#X connect 16 1 6 0;
#X connect 17 0 16 1;
#X connect 18 0 20 0;
#X connect 18 1 19 0;
#X connect 19 0 17 0;
#X connect 20 0 15 1;
#X connect 21 0 22 0;
#X connect 21 1 23 0;
#X connect 22 0 15 1;
#X connect 23 0 17 0;
#X connect 24 0 14 2;
#X connect 25 0 14 2;
#X connect 26 0 14 2;
#X connect 27 0 28 0;
#X connect 28 0 11 0;
#X connect 29 0 24 0;
#X connect 30 0 26 0;
#X connect 31 0 25 0;
#X connect 32 0 2 0;
#X connect 33 0 1 0;
#X connect 34 0 10 0;
#X connect 35 0 3 0;
#X connect 36 0 2 0;
#X restore 200 193 pd track1;
#X obj 300 291 dac~;
#N canvas 1 93 949 675 track2 0;
#X msg 307 196 0 1000;
#X obj 366 155 sel 1;
#X obj 366 233 line 200;
#X obj 443 155 sel 1;
#X obj 301 627 outlet~;
#X obj 251 254 bng 15 250 50 0 empty empty empty 17 7 0 10 -262144
-1 -1;
#X obj 308 283 tgl 15 0 empty empty empty 17 7 0 10 -262144 -1 -1 1
1;
#X obj 279 254 bng 15 250 50 0 empty empty empty 17 7 0 10 -262144
-1 -1;
#X obj 438 454 st-delayfb;
#X obj 300 497 *~ 1;
#X obj 438 611 spigot~;
#X obj 477 545 tgl 15 0 empty empty empty 17 7 0 10 -262144 -1 -1 0
1;
#X obj 793 167 t b b;
#X msg 820 208 1;
#X msg 785 209 0;
#X obj 721 169 t b b;
#X msg 713 211 1;
#X msg 748 210 0;
#X msg 744 547 2 \$1;
#X msg 776 438 1 \$1;
#X msg 665 437 0 \$1;
#X obj 308 233 loadbang;
#X msg 308 262 1;
#X obj 744 514 autoscale 0 0.5;
#X obj 665 407 autoscale 0.3 0.7;
#X obj 776 406 autoscale 0.3 0.7;
#X obj 366 71 r velocity2;
#X obj 307 138 r out2;
#X obj 665 371 r green2;
#X obj 776 365 r blue2;
#X obj 744 477 r Z2;
#X obj 251 306 echantillon trompete.wav;
#X msg 443 199 1 1000;
#X obj 366 120 <= 5;
#X obj 137 242 r in2;
#X obj 443 120 >= 4;
#X msg 366 199 0.5 1000;
#X connect 0 0 2 0;
#X connect 1 0 36 0;
#X connect 1 0 15 0;
#X connect 2 0 31 4;
#X connect 3 0 32 0;
#X connect 3 0 15 0;
#X connect 3 0 12 0;
#X connect 5 0 31 0;
#X connect 6 0 31 2;
#X connect 7 0 31 1;
#X connect 8 0 10 0;
#X connect 8 1 10 0;
#X connect 9 0 4 0;
#X connect 10 1 4 0;
#X connect 11 0 10 1;
#X connect 12 0 14 0;
#X connect 12 1 13 0;
#X connect 13 0 11 0;
#X connect 14 0 9 1;
#X connect 15 0 16 0;
#X connect 15 1 17 0;
#X connect 16 0 9 1;
#X connect 17 0 11 0;
#X connect 18 0 8 2;
#X connect 19 0 8 2;
#X connect 20 0 8 2;
#X connect 21 0 22 0;
#X connect 22 0 6 0;
#X connect 23 0 18 0;
#X connect 24 0 20 0;
#X connect 25 0 19 0;
#X connect 26 0 33 0;
#X connect 26 0 35 0;
#X connect 27 0 0 0;
#X connect 27 0 7 0;
#X connect 28 0 24 0;
#X connect 29 0 25 0;
#X connect 30 0 23 0;
#X connect 31 0 8 0;
#X connect 31 0 8 1;
#X connect 31 0 9 0;
#X connect 32 0 2 0;
#X connect 33 0 1 0;
#X connect 34 0 5 0;
#X connect 35 0 3 0;
#X connect 36 0 2 0;
#X restore 263 194 pd track2;
#N canvas 0 93 949 675 track3 0;
#X msg 307 196 0 1000;
#X obj 366 155 sel 1;
#X obj 366 233 line 200;
#X obj 443 155 sel 1;
#X obj 301 627 outlet~;
#X obj 251 254 bng 15 250 50 0 empty empty empty 17 7 0 10 -262144
-1 -1;
#X obj 308 283 tgl 15 0 empty empty empty 17 7 0 10 -262144 -1 -1 1
1;
#X obj 279 254 bng 15 250 50 0 empty empty empty 17 7 0 10 -262144
-1 -1;
#X obj 438 454 st-delayfb;
#X obj 300 497 *~ 1;
#X obj 438 611 spigot~;
#X obj 477 545 tgl 15 0 empty empty empty 17 7 0 10 -262144 -1 -1 0
1;
#X obj 793 167 t b b;
#X msg 820 208 1;
#X msg 785 209 0;
#X obj 721 169 t b b;
#X msg 713 211 1;
#X msg 748 210 0;
#X msg 744 547 2 \$1;
#X msg 776 438 1 \$1;
#X msg 665 437 0 \$1;
#X obj 308 233 loadbang;
#X msg 308 262 1;
#X obj 744 514 autoscale 0 0.5;
#X obj 665 407 autoscale 0.3 0.7;
#X obj 776 406 autoscale 0.3 0.7;
#X obj 251 306 echantillon trombone.wav;
#X obj 307 138 r out3;
#X obj 366 71 r velocity3;
#X obj 665 371 r green3;
#X obj 775 364 r blue3;
#X obj 744 477 r Z3;
#X msg 443 199 1 1000;
#X obj 366 120 <= 3;
#X obj 224 205 r in3;
#X obj 443 120 >= 4;
#X msg 366 199 0.5 1000;
#X connect 0 0 2 0;
#X connect 1 0 36 0;
#X connect 1 0 15 0;
#X connect 2 0 26 4;
#X connect 3 0 32 0;
#X connect 3 0 15 0;
#X connect 3 0 12 0;
#X connect 5 0 26 0;
#X connect 6 0 26 2;
#X connect 7 0 26 1;
#X connect 8 0 10 0;
#X connect 8 1 10 0;
#X connect 9 0 4 0;
#X connect 10 1 4 0;
#X connect 11 0 10 1;
#X connect 12 0 14 0;
#X connect 12 1 13 0;
#X connect 13 0 11 0;
#X connect 14 0 9 1;
#X connect 15 0 16 0;
#X connect 15 1 17 0;
#X connect 16 0 9 1;
#X connect 17 0 11 0;
#X connect 18 0 8 2;
#X connect 19 0 8 2;
#X connect 20 0 8 2;
#X connect 21 0 22 0;
#X connect 22 0 6 0;
#X connect 23 0 18 0;
#X connect 24 0 20 0;
#X connect 25 0 19 0;
#X connect 26 0 8 0;
#X connect 26 0 8 1;
#X connect 26 0 9 0;
#X connect 27 0 0 0;
#X connect 27 0 7 0;
#X connect 28 0 33 0;
#X connect 28 0 35 0;
#X connect 29 0 24 0;
#X connect 30 0 25 0;
#X connect 31 0 23 0;
#X connect 32 0 2 0;
#X connect 33 0 1 0;
#X connect 34 0 5 0;
#X connect 35 0 3 0;
#X connect 36 0 2 0;
#X restore 323 194 pd track3;
#N canvas 930 99 949 675 track4 0;
#X msg 307 196 0 1000;
#X obj 366 155 sel 1;
#X obj 366 233 line 200;
#X obj 443 155 sel 1;
#X obj 301 627 outlet~;
#X obj 251 254 bng 15 250 50 0 empty empty empty 17 7 0 10 -262144
-1 -1;
#X obj 308 283 tgl 15 0 empty empty empty 17 7 0 10 -262144 -1 -1 1
1;
#X obj 279 254 bng 15 250 50 0 empty empty empty 17 7 0 10 -262144
-1 -1;
#X obj 438 454 st-delayfb;
#X obj 300 497 *~ 1;
#X obj 422 610 spigot~;
#X obj 477 545 tgl 15 0 empty empty empty 17 7 0 10 -262144 -1 -1 1
1;
#X obj 793 167 t b b;
#X msg 820 208 1;
#X msg 785 209 0;
#X obj 721 169 t b b;
#X msg 713 211 1;
#X msg 748 210 0;
#X msg 744 547 2 \$1;
#X msg 776 438 1 \$1;
#X msg 665 437 0 \$1;
#X obj 308 233 loadbang;
#X msg 308 262 1;
#X obj 744 514 autoscale 0 0.5;
#X obj 665 407 autoscale 0.3 0.7;
#X obj 776 406 autoscale 0.3 0.7;
#X obj 366 71 r velocity4;
#X obj 307 138 r out4;
#X obj 665 373 r green4;
#X obj 776 370 r blue4;
#X obj 744 477 r Z4;
#X obj 251 306 echantillon guitarra.wav;
#X obj 366 120 <= 5;
#X msg 443 199 1 1000;
#X obj 146 197 r in4;
#X obj 443 119 >= 4;
#X msg 366 199 0.5 1000;
#X connect 0 0 2 0;
#X connect 1 0 36 0;
#X connect 1 0 15 0;
#X connect 2 0 31 4;
#X connect 3 0 33 0;
#X connect 3 0 15 0;
#X connect 3 0 12 0;
#X connect 5 0 31 0;
#X connect 6 0 31 2;
#X connect 7 0 31 1;
#X connect 8 0 10 0;
#X connect 8 1 10 0;
#X connect 9 0 4 0;
#X connect 10 1 4 0;
#X connect 11 0 10 1;
#X connect 12 0 14 0;
#X connect 12 1 13 0;
#X connect 13 0 11 0;
#X connect 14 0 9 1;
#X connect 15 0 16 0;
#X connect 15 1 17 0;
#X connect 16 0 9 1;
#X connect 17 0 11 0;
#X connect 18 0 8 2;
#X connect 19 0 8 2;
#X connect 20 0 8 2;
#X connect 21 0 22 0;
#X connect 22 0 6 0;
#X connect 23 0 18 0;
#X connect 24 0 20 0;
#X connect 25 0 19 0;
#X connect 26 0 32 0;
#X connect 26 0 35 0;
#X connect 27 0 0 0;
#X connect 27 0 7 0;
#X connect 28 0 24 0;
#X connect 29 0 25 0;
#X connect 30 0 23 0;
#X connect 31 0 8 0;
#X connect 31 0 8 1;
#X connect 31 0 9 0;
#X connect 32 0 1 0;
#X connect 33 0 2 0;
#X connect 34 0 5 0;
#X connect 35 0 3 0;
#X connect 36 0 2 0;
#X restore 383 194 pd track4;
#N canvas 73 93 949 675 track5 0;
#X msg 307 196 0 1000;
#X obj 366 155 sel 1;
#X obj 366 233 line 200;
#X obj 443 155 sel 1;
#X obj 301 627 outlet~;
#X obj 251 254 bng 15 250 50 0 empty empty empty 17 7 0 10 -262144
-1 -1;
#X obj 308 283 tgl 15 0 empty empty empty 17 7 0 10 -262144 -1 -1 1
1;
#X obj 279 254 bng 15 250 50 0 empty empty empty 17 7 0 10 -262144
-1 -1;
#X obj 438 454 st-delayfb;
#X obj 300 497 *~ 1;
#X obj 438 611 spigot~;
#X obj 477 545 tgl 15 0 empty empty empty 17 7 0 10 -262144 -1 -1 1
1;
#X obj 793 167 t b b;
#X msg 820 208 1;
#X msg 785 209 0;
#X obj 721 169 t b b;
#X msg 713 211 1;
#X msg 748 210 0;
#X msg 744 547 2 \$1;
#X msg 776 438 1 \$1;
#X msg 665 437 0 \$1;
#X obj 308 233 loadbang;
#X msg 308 262 1;
#X obj 744 514 autoscale 0 0.5;
#X obj 665 407 autoscale 0.3 0.7;
#X obj 776 406 autoscale 0.3 0.7;
#X obj 366 71 r velocity5;
#X obj 307 138 r out5;
#X obj 665 373 r green5;
#X obj 776 370 r blue5;
#X obj 744 477 r Z5;
#X obj 251 306 echantillon trompete.wav;
#X msg 443 199 1 1000;
#X obj 366 120 <= 5;
#X obj 140 259 r in5;
#X obj 443 120 >= 4;
#X msg 366 199 0.5 1000;
#X connect 0 0 2 0;
#X connect 1 0 36 0;
#X connect 1 0 15 0;
#X connect 2 0 31 4;
#X connect 3 0 32 0;
#X connect 3 0 15 0;
#X connect 3 0 12 0;
#X connect 5 0 31 0;
#X connect 6 0 31 2;
#X connect 7 0 31 1;
#X connect 8 0 10 0;
#X connect 8 1 10 0;
#X connect 9 0 4 0;
#X connect 10 1 4 0;
#X connect 11 0 10 1;
#X connect 12 0 14 0;
#X connect 12 1 13 0;
#X connect 13 0 11 0;
#X connect 14 0 9 1;
#X connect 15 0 16 0;
#X connect 15 1 17 0;
#X connect 16 0 9 1;
#X connect 17 0 11 0;
#X connect 18 0 8 2;
#X connect 19 0 8 2;
#X connect 20 0 8 2;
#X connect 21 0 22 0;
#X connect 22 0 6 0;
#X connect 23 0 18 0;
#X connect 24 0 20 0;
#X connect 25 0 19 0;
#X connect 26 0 33 0;
#X connect 26 0 35 0;
#X connect 27 0 0 0;
#X connect 27 0 7 0;
#X connect 28 0 24 0;
#X connect 29 0 25 0;
#X connect 30 0 23 0;
#X connect 31 0 8 0;
#X connect 31 0 8 1;
#X connect 31 0 9 0;
#X connect 32 0 2 0;
#X connect 33 0 1 0;
#X connect 34 0 5 0;
#X connect 35 0 3 0;
#X connect 36 0 2 0;
#X restore 453 194 pd track5;
#X msg 130 427 \; pd dsp 1;
#X obj 130 379 loadbang;
#X connect 0 0 2 0;
#X connect 0 0 2 1;
#X connect 1 0 2 0;
#X connect 1 0 2 1;
#X connect 3 0 2 0;
#X connect 3 0 2 1;
#X connect 4 0 2 0;
#X connect 4 0 2 1;
#X connect 5 0 2 0;
#X connect 5 0 2 1;
#X connect 6 0 2 0;
#X connect 6 0 2 1;
#X connect 8 0 7 0;
#X restore 221 87 pd som;
#X text 128 20 SnoopyFrevo v.1.0.1;
