#N canvas 410 88 529 367 10;
#X text 8 254 switch to;
#X text 4 263 white plane;
#X text -7 272 for better editing;
#X text 73 194 x;
#X text 105 194 y;
#X text 146 195 x;
#X text 178 195 y;
#X text 216 195 x;
#X text 248 195 y;
#X text 289 197 x;
#X text 321 197 y;
#X text 67 312 created by Malte Steiner 2011 during his artist-in-residency
;
#X text 67 322 at Open City \, Chile;
#X obj 15 212 b4plane;
#X obj 245 -14 cnv 15 220 70 empty empty empty 20 12 0 14 -195568 -66577
0;
#N canvas 0 22 454 304 gemwin 0;
#X obj 132 136 gemwin;
#X obj 67 89 outlet;
#X obj 67 10 inlet;
#X obj 67 41 route create;
#X msg 67 70 set destroy;
#X msg 182 68 set create;
#X msg 132 112 create \, 1;
#X msg 238 112 destroy;
#N canvas 87 154 247 179 Gem.init 0;
#X obj 32 42 loadbang;
#X msg 32 77 reset;
#X obj 32 109 outlet;
#X msg 189 76 lighting 0;
#X msg 76 81 dimen 800 600;
#X connect 0 0 1 0;
#X connect 0 0 4 0;
#X connect 0 0 3 0;
#X connect 1 0 2 0;
#X connect 3 0 2 0;
#X connect 4 0 2 0;
#X restore 289 80 pd Gem.init;
#X connect 2 0 3 0;
#X connect 3 0 4 0;
#X connect 3 0 6 0;
#X connect 3 1 5 0;
#X connect 3 1 7 0;
#X connect 4 0 1 0;
#X connect 5 0 1 0;
#X connect 6 0 0 0;
#X connect 7 0 0 0;
#X connect 8 0 0 0;
#X restore 250 30 pd gemwin;
#X msg 250 6 create;
#X text 246 -14 Create window and render;
#X obj 15 -10 gemhead 58;
#X obj 41 46 cnv 15 150 80 empty empty empty 20 12 0 14 -24198 -66577
0;
#X obj 42 102 spigot;
#X obj 98 103 t b f;
#X obj 76 84 tgl 15 0 empty empty empty 0 -6 0 8 -262144 -1 -1 0 1
;
#X obj 15 19 t a b;
#X text 91 58 drawn but before the square;
#X obj 59 51 bng 25 250 50 0 empty empty empty 0 -6 0 8 -262144 -1
-1;
#X text 89 45 SNAP! after the sphere is;
#X obj 15 178 pix_snap2tex 0 0 512 512;
#X text 123 192;
#N canvas 0 0 450 300 someStuffToShow 0;
#X obj 32 74 translateXYZ;
#X floatatom 169 95 5 0 0 0 - - -;
#X floatatom 54 47 5 0 0 0 - - -;
#X floatatom 95 49 5 0 0 0 - - -;
#X floatatom 131 50 5 0 0 0 - - -;
#X msg 208 75 font /usr/share/fonts/TTF/arial.ttf;
#X obj 32 14 gemhead 29;
#X obj 32 148 text3d;
#X msg 127 70 text eshfgh;
#X msg 214 99 text Malte Steiner;
#X obj 217 15 loadbang;
#X obj 217 42 t b b;
#X connect 0 0 7 0;
#X connect 1 0 7 1;
#X connect 2 0 0 1;
#X connect 3 0 0 2;
#X connect 4 0 0 3;
#X connect 5 0 7 0;
#X connect 6 0 0 0;
#X connect 8 0 7 0;
#X connect 9 0 7 0;
#X connect 10 0 11 0;
#X connect 11 0 8 0;
#X connect 11 1 5 0;
#X restore 256 113 pd someStuffToShow;
#X connect 15 0 16 0;
#X connect 16 0 15 0;
#X connect 18 0 23 0;
#X connect 20 0 21 0;
#X connect 21 0 27 0;
#X connect 21 1 22 0;
#X connect 22 0 20 1;
#X connect 23 0 27 0;
#X connect 23 1 20 0;
#X connect 25 0 22 0;
#X connect 27 0 13 0;
