#N canvas 109 124 561 361 10;
#X floatatom 145 26 5 0 0 0 - - -;
#X floatatom 181 26 5 0 0 0 - - -;
#X obj 145 98 pack;
#X msg 185 81 bang;
#X floatatom 296 27 5 0 0 0 - - -;
#X floatatom 331 27 5 0 0 0 - - -;
#X obj 296 161 pack;
#X msg 336 144 bang;
#X obj 13 -10 inlet;
#X obj 220 14 cnv 15 70 30 empty empty empty 20 12 0 14 -261234 -66577
0;
#X floatatom 222 26 5 0 0 0 - - -;
#X floatatom 257 26 5 0 0 0 - - -;
#X obj 222 159 pack;
#X msg 262 142 bang;
#X obj 370 15 cnv 15 70 30 empty empty empty 20 12 0 14 -261234 -66577
0;
#X floatatom 371 28 5 0 0 0 - - -;
#X floatatom 407 28 5 0 0 0 - - -;
#X obj 371 161 pack;
#X msg 411 144 bang;
#X text 148 12 bottom left;
#X text 219 12 bottom right;
#X text 292 11 top right;
#X text 373 12 top left;
#X text 343 235 storing 50 settings;
#X obj 446 15 cnv 15 85 30 empty empty empty 20 12 0 14 -204786 -66577
0;
#X floatatom 453 22 2 0 49 2 - - -;
#X text 444 9 program;
#N canvas 0 0 365 367 reader 0;
#X obj 153 214 tabread \$0-settings;
#X obj 107 -11 inlet;
#X obj 107 11 * 8;
#X msg 107 68 0;
#X text 141 -14 get the index of setting 0 - 49;
#X obj 107 99 f;
#X obj 107 37 t b f;
#X obj 153 181 +;
#X obj 107 134 moses 8;
#X obj 59 70 + 1;
#X obj 126 244 pack;
#X obj 126 279 route 0 1 2 3 4 5 6 7;
#X obj 12 321 outlet;
#X obj 56 321 outlet;
#X obj 100 321 outlet;
#X obj 143 321 outlet;
#X obj 187 321 outlet;
#X obj 231 321 outlet;
#X obj 275 321 outlet;
#X obj 318 321 outlet;
#X obj 107 159 t f f f;
#X connect 0 0 10 1;
#X connect 1 0 2 0;
#X connect 2 0 6 0;
#X connect 3 0 5 0;
#X connect 5 0 8 0;
#X connect 6 0 3 0;
#X connect 6 1 7 1;
#X connect 7 0 0 0;
#X connect 8 0 20 0;
#X connect 9 0 5 0;
#X connect 10 0 11 0;
#X connect 11 0 12 0;
#X connect 11 1 13 0;
#X connect 11 2 14 0;
#X connect 11 3 15 0;
#X connect 11 4 16 0;
#X connect 11 5 17 0;
#X connect 11 6 18 0;
#X connect 11 7 19 0;
#X connect 20 0 9 0;
#X connect 20 1 10 0;
#X connect 20 2 7 0;
#X restore 302 -30 pd reader --------;
#N canvas 72 99 528 311 writer 0;
#X obj 17 9 inlet;
#X obj 64 9 inlet;
#X obj 106 9 inlet;
#X obj 143 9 inlet;
#X obj 184 9 inlet;
#X obj 231 9 inlet;
#X obj 273 8 inlet;
#X obj 310 8 inlet;
#X msg 44 92 0;
#X obj 17 68 t f b;
#X obj 181 241 +;
#X obj 442 23 inlet;
#X obj 64 70 t f b;
#X msg 91 94 1;
#X obj 106 69 t f b;
#X obj 143 69 t f b;
#X obj 184 67 t f b;
#X obj 231 69 t f b;
#X obj 273 68 t f b;
#X obj 310 68 t f b;
#X msg 133 94 2;
#X msg 170 93 3;
#X msg 211 91 4;
#X msg 258 93 5;
#X msg 300 92 6;
#X msg 337 92 7;
#X obj 64 269 tabwrite \$0-settings;
#X obj 16 40 f;
#X obj 64 40 f;
#X obj 106 40 f;
#X obj 150 40 f;
#X obj 184 40 f;
#X obj 231 40 f;
#X obj 273 40 f;
#X obj 310 40 f;
#X obj 336 171 * 8;
#X obj 486 22 inlet;
#X obj 486 50 t b b;
#X msg 382 142 \; pd-b4plane.pd menusave;
#X text 384 173 store the abstaction with;
#X text 384 185 the data on harddisk;
#X connect 0 0 27 1;
#X connect 1 0 28 1;
#X connect 2 0 29 1;
#X connect 3 0 30 1;
#X connect 4 0 31 1;
#X connect 5 0 32 1;
#X connect 6 0 33 1;
#X connect 7 0 34 1;
#X connect 8 0 10 0;
#X connect 9 0 26 0;
#X connect 9 1 8 0;
#X connect 10 0 26 1;
#X connect 11 0 35 0;
#X connect 12 0 26 0;
#X connect 12 1 13 0;
#X connect 13 0 10 0;
#X connect 14 0 26 0;
#X connect 14 1 20 0;
#X connect 15 0 26 0;
#X connect 15 1 21 0;
#X connect 16 0 26 0;
#X connect 16 1 22 0;
#X connect 17 0 26 0;
#X connect 17 1 23 0;
#X connect 18 0 26 0;
#X connect 18 1 24 0;
#X connect 19 0 26 0;
#X connect 19 1 25 0;
#X connect 20 0 10 0;
#X connect 21 0 10 0;
#X connect 22 0 10 0;
#X connect 23 0 10 0;
#X connect 24 0 10 0;
#X connect 25 0 10 0;
#X connect 27 0 9 0;
#X connect 28 0 12 0;
#X connect 29 0 14 0;
#X connect 30 0 15 0;
#X connect 31 0 16 0;
#X connect 32 0 17 0;
#X connect 33 0 18 0;
#X connect 34 0 19 0;
#X connect 35 0 10 1;
#X connect 36 0 37 0;
#X connect 37 0 38 0;
#X connect 37 1 34 0;
#X connect 37 1 33 0;
#X connect 37 1 32 0;
#X connect 37 1 31 0;
#X connect 37 1 30 0;
#X connect 37 1 29 0;
#X connect 37 1 28 0;
#X connect 37 1 27 0;
#X restore 419 113 pd writer ------;
#X obj 509 23 bng 15 250 50 0 empty empty empty 17 7 0 10 -258113 -262144
-1;
#X text 502 35 write;
#N canvas 469 73 450 208 storage 0;
#N canvas 0 0 450 300 (subpatch) 0;
#X array \$0-settings 400 float 3;
#A 0 -14.28 -3.96 14.15 -4.04 14.21 4 -14.17 4.11 -5.21 -3 -0.16 -4
0 3.93 -5.18 3 -5.21 -3 -0.16 -4 0 3.93 -5.18 3 0 0 0 0 0 0 0 0 0 0
0 0 0 0 0 0 0 0 0 0 0 0 0 0 0 0 0 0 0 0 0 0 -0.62 -3.5 3.65 -0.85 -36.31
9.09 -14.09 2.92 4.52 -0.59 24.37 -22.68 -1.6 7.38 0.4 2.68 5.52 1.64
10.37 -22.68 11.4 7.38 6.4 2.68 0 0 0 0 0 0 0 0 0 0 0 0 0 0 0 0 0 0
0 0 0 0 0 0 0 0 0 0 0 0 0 0 0 0 0 0 0 0 0 0 0 0 0 0 0 0 0 0 0 0 0 0
0 0 0 0 -3 -3 4 -3 4 3 -4 3 0 0 0 0 0 0 0 0 0 0 0 0 0 0 0 0 0 0 0 0
0 0 0 0 0 0 0 0 0 0 0 0 0 0 0 0 0 0 0 0 0 0 0 0 0 0 0 0 0 0 0 0 0 0
0 0 0 0 0 0 0 0 0 0 0 0 0 0 0 0 0 0 0 0 0 0 0 0 0 0 0 0 0 0 0 0 0 0
0 0 0 0 0 0 0 0 0 0 0 0 0 0 0 0 0 0 0 0 0 0 0 0 0 0 0 0 0 0 0 0 0 0
0 0 0 0 0 0 0 0 0 0 0 0 0 0 0 0 0 0 0 0 0 0 0 0 0 0 0 0 0 0 0 0 0 0
0 0 0 0 0 0 0 0 0 0 0 0 0 0 0 0 0 0 0 0 0 0 0 0 0 0 0 0 0 0 0 0 0 0
0 0 0 0 0 0 0 0 0 0 0 0 0 0 0 0 0 0 0 0 0 0 0 0 0 0 0 0 0 0 0 0 0 0
0 0 0 0 0 0 0 0 0 0 0 0 0 0 0 0 0 0 0 0 0 0 0 0 0 0 0 0 0 0 0 0;
#X coords 0 10 400 -10 400 140 1;
#X restore 24 29 graph;
#X restore 348 258 pd storage;
#X obj 487 23 bng 15 250 50 0 empty empty empty 17 7 0 10 -4034 -1
-1;
#X obj 487 65 f;
#X text 481 9 load;
#X obj 79 -14 gemhead;
#X obj 13 103 spigot;
#X obj 79 138 spigot;
#X obj 112 26 tgl 15 0 empty empty empty 17 7 0 10 -262144 -1 -1 0
1;
#X text 105 11 plane;
#X obj 21 58 expr !$f1;
#X obj 21 79 tgl 15 0 empty empty empty 17 7 0 10 -262144 -1 -1 1 1
;
#X text 30 290 created by Malte Steiner 2011 during his artist-in-residency
;
#X text 30 300 at Open City \, Chile;
#X msg 28 198 draw fill;
#X obj 145 268 curve3d;
#X msg 6 242 grid 40 40;
#X obj 6 170 loadbang;
#X msg 145 123 set 1 0 \$1 \$2 0;
#X msg 221 186 set 0 0 \$1 \$2 0;
#X msg 296 213 set 0 1 \$1 \$2 0;
#X msg 371 187 set 1 1 \$1 \$2 0;
#X msg 130 -14 0;
#X obj 130 -37 loadbang;
#X obj 489 -18 inlet;
#X connect 0 0 2 0;
#X connect 0 0 28 0;
#X connect 1 0 2 1;
#X connect 1 0 3 0;
#X connect 1 0 28 1;
#X connect 2 0 48 0;
#X connect 3 0 2 0;
#X connect 4 0 6 0;
#X connect 4 0 28 4;
#X connect 5 0 6 1;
#X connect 5 0 7 0;
#X connect 5 0 28 5;
#X connect 6 0 50 0;
#X connect 7 0 6 0;
#X connect 8 0 36 0;
#X connect 10 0 12 0;
#X connect 10 0 28 2;
#X connect 11 0 12 1;
#X connect 11 0 13 0;
#X connect 11 0 28 3;
#X connect 12 0 49 0;
#X connect 13 0 12 0;
#X connect 15 0 17 0;
#X connect 15 0 28 6;
#X connect 16 0 17 1;
#X connect 16 0 18 0;
#X connect 16 0 28 7;
#X connect 17 0 51 0;
#X connect 18 0 17 0;
#X connect 25 0 33 1;
#X connect 25 0 28 8;
#X connect 27 0 0 0;
#X connect 27 1 1 0;
#X connect 27 2 10 0;
#X connect 27 3 11 0;
#X connect 27 4 4 0;
#X connect 27 5 5 0;
#X connect 27 6 15 0;
#X connect 27 7 16 0;
#X connect 29 0 28 9;
#X connect 32 0 33 0;
#X connect 33 0 27 0;
#X connect 35 0 37 0;
#X connect 36 0 45 0;
#X connect 37 0 45 0;
#X connect 38 0 37 1;
#X connect 38 0 40 0;
#X connect 40 0 41 0;
#X connect 41 0 36 1;
#X connect 44 0 45 0;
#X connect 46 0 45 0;
#X connect 47 0 44 0;
#X connect 47 0 46 0;
#X connect 48 0 45 0;
#X connect 49 0 45 0;
#X connect 50 0 45 0;
#X connect 51 0 45 0;
#X connect 52 0 38 0;
#X connect 53 0 52 0;
#X connect 54 0 32 0;
#X coords 0 -1 1 1 450 40 2 100 10;
