#N canvas 0 220 497 308 10;
#X obj 223 20 cnv 15 220 70 empty empty empty 20 12 0 14 -195568 -66577
0;
#N canvas 371 50 454 304 gemwin 0;
#X obj 131 152 gemwin;
#X obj 67 89 outlet;
#X obj 67 10 inlet;
#X obj 67 41 route create;
#X msg 67 70 set destroy;
#X msg 182 68 set create;
#X msg 238 112 destroy;
#X obj 291 211 world_light;
#X obj 294 190 gemhead;
#X obj 186 8 loadbang;
#X msg 186 34 reset \, dimen 1024 768 \, lighting 1 \, frame 25;
#X msg 131 111 create \, 1;
#X connect 2 0 3 0;
#X connect 3 0 4 0;
#X connect 3 0 11 0;
#X connect 3 1 5 0;
#X connect 3 1 6 0;
#X connect 4 0 1 0;
#X connect 5 0 1 0;
#X connect 6 0 0 0;
#X connect 8 0 7 0;
#X connect 9 0 10 0;
#X connect 10 0 0 0;
#X connect 11 0 0 0;
#X restore 228 64 pd gemwin;
#X msg 228 40 destroy;
#X text 224 20 Create window and render;
#X text 118 212 comment;
#X text 68 214 x;
#X text 100 214 y;
#X text 141 215 x;
#X text 173 215 y;
#X text 212 215 x;
#X text 244 215 y;
#X text 285 217 x;
#X text 317 217 y;
#X obj 10 232 b4plane;
#N canvas 189 61 741 491 cam 0;
#X msg 104 0 stop;
#X msg 55 1 bang;
#X msg 115 -140 open /dev/video0;
#X msg 117 -118 open /dev/video1;
#X text 345 -141 you can choose the input device using the 'open' message.
the default is /dev/video0;
#X msg 183 -64 close;
#X text 367 -90 closes the video port;
#X msg 228 -64 dim 320 240;
#X msg 228 -41 dim 640 480;
#X floatatom 229 -8 5 0 0 0 - - -;
#X text 345 205 pdp_v4l2 is an interface for video 4 linux 2 devices
;
#X text 344 220 it's very similar to pdp_v4l but should support more
recent cameras \, if it doesn't with yours report bugs to ydegoyon@free.fr
;
#X obj 162 139 pdp_v4l2;
#X text 341 154 creation arguments: <input device>;
#X floatatom 230 40 5 0 0 0 - - -;
#X msg 230 60 format \$1;
#X text 314 38 sets the pixel format (like YUYV \, RGB32 \, ...);
#X msg 229 12 input \$1;
#X text 313 -10 sets the v4l input (like camera \, tuner \, svideo
\, ...);
#X text 312 1 see initialization phase for valid inputs;
#X text 317 89 sets the video standard ( for tuner cards );
#X text 314 49 see initialization phase for valid formats;
#X text 317 101 see initialization phase for valid standards;
#X floatatom 233 91 5 0 0 0 - - -;
#X msg 233 111 standard \$1;
#X text 344 255 authors : Yves Degoyon and Lluis Gomez i Bigorda;
#X text 345 269 code was inspired by pdp_v4l by Tom Schouten and xawtv
by Gerd Knorr;
#X obj 617 -123 loadbang;
#X msg 521 -40 1;
#X msg 317 -54 dim 160 120;
#X obj 55 39 metro 40;
#X obj 162 177 outlet;
#X msg 307 -119 bang;
#X obj 496 -102 t b b b b b;
#X obj 469 -46 outlet;
#X connect 0 0 30 0;
#X connect 1 0 30 0;
#X connect 2 0 12 0;
#X connect 2 0 32 0;
#X connect 3 0 12 0;
#X connect 3 0 32 0;
#X connect 5 0 12 0;
#X connect 7 0 12 0;
#X connect 8 0 12 0;
#X connect 9 0 17 0;
#X connect 12 0 31 0;
#X connect 14 0 15 0;
#X connect 15 0 12 0;
#X connect 17 0 12 0;
#X connect 23 0 24 0;
#X connect 24 0 12 0;
#X connect 28 0 14 0;
#X connect 29 0 12 0;
#X connect 30 0 12 0;
#X connect 32 0 33 0;
#X connect 33 0 34 0;
#X connect 33 1 1 0;
#X connect 33 2 28 0;
#X connect 33 3 29 0;
#X coords 0 0 1 1 150 60 0;
#X restore 38 53 pd cam;
#X obj 38 113 pdp2gem;
#X obj 38 143 pix_texture;
#X obj 38 179 emission 1 1 1;
#X obj 69 92 gemhead 60;
#X connect 1 0 2 0;
#X connect 2 0 1 0;
#X connect 14 0 15 0;
#X connect 15 0 16 0;
#X connect 16 0 17 0;
#X connect 17 0 13 0;
#X connect 18 0 15 0;
